<svg width="14" height="14" viewBox="0 0 14 14" fill="none" xmlns="http://www.w3.org/2000/svg">
<path d="M10.1469 2.58057C9.80932 2.58057 9.4856 2.71466 9.24691 2.95334C9.00823 3.19202 8.87414 3.51575 8.87414 3.85329C8.87414 4.19084 9.00823 4.51457 9.24691 4.75325C9.4856 4.99193 9.80932 5.12602 10.1469 5.12602C10.4844 5.12602 10.8081 4.99193 11.0468 4.75325C11.2855 4.51457 11.4196 4.19084 11.4196 3.85329C11.4196 3.51575 11.2855 3.19202 11.0468 2.95334C10.8081 2.71466 10.4844 2.58057 10.1469 2.58057ZM8.87414 10.1132C8.87414 9.77565 9.00823 9.45193 9.24691 9.21325C9.4856 8.97457 9.80932 8.84048 10.1469 8.84048C10.4844 8.84048 10.8081 8.97457 11.0468 9.21325C11.2855 9.45193 11.4196 9.77565 11.4196 10.1132C11.4196 10.4508 11.2855 10.7745 11.0468 11.0132C10.8081 11.2518 10.4844 11.3859 10.1469 11.3859C9.80932 11.3859 9.4856 11.2518 9.24691 11.0132C9.00823 10.7745 8.87414 10.4508 8.87414 10.1132ZM3.85323 8.84048C3.51568 8.84048 3.19196 8.97457 2.95328 9.21325C2.7146 9.45193 2.58051 9.77565 2.58051 10.1132C2.58051 10.4508 2.7146 10.7745 2.95328 11.0132C3.19196 11.2518 3.51568 11.3859 3.85323 11.3859C4.19078 11.3859 4.5145 11.2518 4.75319 11.0132C4.99187 10.7745 5.12596 10.4508 5.12596 10.1132C5.12596 9.77565 4.99187 9.45193 4.75319 9.21325C4.5145 8.97457 4.19078 8.84048 3.85323 8.84048ZM2.58051 3.85329C2.58051 3.68616 2.61343 3.52066 2.67739 3.36624C2.74135 3.21183 2.8351 3.07152 2.95328 2.95334C3.07146 2.83516 3.21177 2.74141 3.36618 2.67745C3.5206 2.61349 3.6861 2.58057 3.85323 2.58057C4.02037 2.58057 4.18587 2.61349 4.34028 2.67745C4.4947 2.74141 4.635 2.83516 4.75319 2.95334C4.87137 3.07152 4.96512 3.21183 5.02908 3.36624C5.09304 3.52066 5.12596 3.68616 5.12596 3.85329C5.12596 4.19084 4.99187 4.51457 4.75319 4.75325C4.5145 4.99193 4.19078 5.12602 3.85323 5.12602C3.51568 5.12602 3.19196 4.99193 2.95328 4.75325C2.7146 4.51457 2.58051 4.19084 2.58051 3.85329Z" fill="currentColor"/>
<path fill-rule="evenodd" clip-rule="evenodd" d="M1.90909 0C1.40277 0 0.917184 0.201136 0.55916 0.55916C0.201136 0.917184 0 1.40277 0 1.90909V12.0909C0 12.5972 0.201136 13.0828 0.55916 13.4408C0.917184 13.7989 1.40277 14 1.90909 14H12.0909C12.5972 14 13.0828 13.7989 13.4408 13.4408C13.7989 13.0828 14 12.5972 14 12.0909V1.90909C14 1.40277 13.7989 0.917184 13.4408 0.55916C13.0828 0.201136 12.5972 0 12.0909 0H1.90909ZM12.0909 1.27273H1.90909C1.74032 1.27273 1.57846 1.33977 1.45911 1.45911C1.33977 1.57846 1.27273 1.74032 1.27273 1.90909V12.0909C1.27273 12.2597 1.33977 12.4215 1.45911 12.5409C1.57846 12.6602 1.74032 12.7273 1.90909 12.7273H12.0909C12.2597 12.7273 12.4215 12.6602 12.5409 12.5409C12.6602 12.4215 12.7273 12.2597 12.7273 12.0909V1.90909C12.7273 1.74032 12.6602 1.57846 12.5409 1.45911C12.4215 1.33977 12.2597 1.27273 12.0909 1.27273Z" fill="currentColor"/>
</svg>
