<svg width="74" height="62" viewBox="0 0 74 62" fill="none" xmlns="http://www.w3.org/2000/svg">
<path d="M59.6427 7.83113C59.6427 7.48497 59.5052 7.15299 59.2604 6.90822C59.0156 6.66345 58.6837 6.52594 58.3375 6.52594C57.9913 6.52594 57.6594 6.66345 57.4146 6.90822C57.1698 7.15299 57.0323 7.48497 57.0323 7.83113V14.3571H50.5064C50.1602 14.3571 49.8282 14.4946 49.5835 14.7394C49.3387 14.9841 49.2012 15.3161 49.2012 15.6623C49.2012 16.0084 49.3387 16.3404 49.5835 16.5852C49.8282 16.8299 50.1602 16.9675 50.5064 16.9675H57.0323V23.4934C57.0323 23.8396 57.1698 24.1715 57.4146 24.4163C57.6594 24.6611 57.9913 24.7986 58.3375 24.7986C58.6837 24.7986 59.0156 24.6611 59.2604 24.4163C59.5052 24.1715 59.6427 23.8396 59.6427 23.4934V16.9675H66.1686C66.5148 16.9675 66.8468 16.8299 67.0915 16.5852C67.3363 16.3404 67.4738 16.0084 67.4738 15.6623C67.4738 15.3161 67.3363 14.9841 67.0915 14.7394C66.8468 14.4946 66.5148 14.3571 66.1686 14.3571H59.6427V7.83113Z" fill="url(#paint0_linear_303_4857)"/>
<path d="M15.6432 3.93652L0.615747 14.3207L13.6921 18.1487L28.8885 6.69039L15.6432 3.93652ZM31.0691 8.02594L14.9523 19.8619L21.9248 37.1108L23.09 36.1299L23.6675 34.0633C23.2765 33.8178 22.9414 33.4186 22.7164 32.9303C22.4914 32.442 22.3897 31.8932 22.4278 31.3727C22.4651 30.8673 22.6322 30.4171 22.9033 30.0909C23.1745 29.7647 23.5348 29.5806 23.9292 29.5666C24.0923 29.5609 24.2585 29.5843 24.4234 29.6364C24.5683 29.6829 24.711 29.7511 24.8484 29.8395L25.9325 25.9609C25.9457 25.9143 25.9617 25.8686 25.9807 25.824L25.9886 25.8072C26.0019 25.7766 26.0164 25.7465 26.0323 25.7171L26.0446 25.6969C26.0603 25.6689 26.0771 25.6414 26.0951 25.6147C26.1177 25.5818 26.1421 25.5501 26.168 25.5196L26.177 25.5098C26.2004 25.4827 26.225 25.4567 26.2507 25.4317C26.279 25.4043 26.3086 25.3783 26.3395 25.3537C26.3599 25.338 26.3814 25.3228 26.4028 25.3084C26.4148 25.2996 26.4269 25.2909 26.4392 25.2825C26.4615 25.2686 26.4844 25.2555 26.5077 25.243C26.5199 25.2359 26.5321 25.229 26.5446 25.2224C26.5643 25.2127 26.5843 25.2036 26.6046 25.195C26.6217 25.1868 26.639 25.179 26.6565 25.1716C26.6762 25.1644 26.6961 25.1578 26.7162 25.1516C26.7347 25.1449 26.7533 25.1386 26.7721 25.1328C26.7904 25.128 26.8088 25.1236 26.8273 25.1196C26.8485 25.1141 26.8699 25.1091 26.8915 25.1046C26.9146 25.1009 26.9378 25.0978 26.9611 25.0954C26.9779 25.0929 26.9947 25.0907 27.0116 25.0888H27.013L27.0143 25.0884L31.605 24.7104C31.7101 24.3326 31.8963 24.0141 32.1442 23.7879C32.3922 23.5617 32.6928 23.4361 33.0148 23.4241C33.1779 23.4183 33.3443 23.4418 33.5093 23.4938C33.9544 23.6355 34.3684 23.9784 34.6735 24.4578L36.4542 24.3114L31.0691 8.02594ZM15.4319 9.02665C16.0096 9.03823 16.4992 9.15898 16.8176 9.36841C17.1361 9.57785 17.2638 9.86309 17.1792 10.1758C17.082 10.5352 16.7119 10.9034 16.1502 11.1994C15.5885 11.4954 14.8812 11.6951 14.184 11.7543C13.8388 11.7837 13.5064 11.7777 13.2058 11.7367C12.9053 11.6957 12.6425 11.6205 12.4324 11.5154C12.2223 11.4103 12.0691 11.2774 11.9815 11.1242C11.8939 10.971 11.8736 10.8006 11.9217 10.6226C11.9698 10.4446 12.0854 10.2626 12.2619 10.087C12.4385 9.91129 12.6725 9.74542 12.9506 9.59881C13.2287 9.4522 13.5455 9.32772 13.8829 9.23248C14.2203 9.13725 14.5717 9.07312 14.9169 9.04376C15.0922 9.02894 15.2649 9.02321 15.4319 9.02665ZM29.1159 12.1208C29.279 12.115 29.4455 12.1385 29.6105 12.1905C30.0943 12.3431 30.5404 12.7329 30.8505 13.2742C31.1606 13.8156 31.3094 14.4641 31.2641 15.0771C31.2416 15.3807 31.1722 15.6664 31.0598 15.9179C30.9473 16.1694 30.7941 16.3819 30.6088 16.5431C30.4234 16.7043 30.2097 16.8112 29.9797 16.8575C29.7498 16.9039 29.5081 16.8888 29.2684 16.8133C29.0288 16.7378 28.796 16.6032 28.5832 16.4173C28.3704 16.2314 28.1818 15.9977 28.0282 15.7296C27.8746 15.4616 27.7591 15.1644 27.6881 14.8551C27.6171 14.5457 27.5921 14.2302 27.6145 13.9267C27.6519 13.4213 27.819 12.9711 28.0902 12.6449C28.3613 12.3188 28.7216 12.1347 29.1159 12.1208ZM0 16.6155L6.41578 31.6307L19.2817 36.9434L13.003 20.4223L0 16.6155ZM20.1908 18.9088C20.3539 18.9029 20.5202 18.9263 20.6853 18.9782C21.1691 19.1309 21.6151 19.5208 21.9252 20.0621C22.2352 20.6034 22.384 21.2519 22.3386 21.8649C22.3162 22.1684 22.2468 22.4541 22.1343 22.7057C22.0219 22.9572 21.8687 23.1697 21.6834 23.3309C21.4981 23.4921 21.2843 23.599 21.0544 23.6454C20.8244 23.6917 20.5827 23.6767 20.3431 23.6012C19.8592 23.4486 19.4132 23.0588 19.1031 22.5174C18.7929 21.9761 18.6442 21.3276 18.6895 20.7146C18.7268 20.2093 18.8939 19.7591 19.165 19.4329C19.4361 19.1068 19.7964 18.9228 20.1908 18.9088ZM9.93427 20.6213C10.2727 20.6035 10.6969 20.7967 11.1247 21.1632C11.5524 21.5298 11.9532 22.0436 12.2491 22.6051C12.4059 22.9024 12.5288 23.2046 12.6107 23.4944C12.6927 23.7841 12.7321 24.0558 12.7267 24.2939C12.7213 24.5319 12.6712 24.7317 12.5793 24.8818C12.4874 25.0319 12.3555 25.1294 12.1911 25.1687C11.859 25.2479 11.4148 25.0853 10.9561 24.7167C10.4975 24.3481 10.062 23.8037 9.74545 23.2032C9.42901 22.6029 9.25735 21.9956 9.2682 21.515C9.27906 21.0344 9.47154 20.7198 9.80334 20.6402C9.84511 20.6301 9.88872 20.6238 9.93427 20.6213ZM45.8951 25.9116L30.5899 27.1717L46.1217 37.6874L61.6312 35.4566L45.8951 25.9116ZM6.36226 27.1821C6.70066 27.1642 7.12495 27.3573 7.55276 27.7239C7.98056 28.0905 8.38137 28.6044 8.67739 29.1659C8.99399 29.7664 9.16575 30.3738 9.15486 30.8545C9.14398 31.3353 8.95136 31.65 8.61936 31.7294C8.28729 31.8086 7.84307 31.6461 7.38443 31.2775C6.92579 30.9089 6.49028 30.3645 6.17371 29.764C5.85718 29.1636 5.68548 28.5562 5.69636 28.0755C5.70724 27.5949 5.89982 27.2802 6.23174 27.2008C6.27352 27.1908 6.31672 27.1844 6.36226 27.1821ZM27.849 28.21L22.1778 48.4963L37.9628 61.5814L44.3997 39.416L27.849 28.21ZM45.1864 29.6794C45.61 29.687 46.0763 29.7482 46.5448 29.8579C47.0133 29.9675 47.4699 30.1223 47.8751 30.3087C48.2022 30.4592 48.4886 30.6271 48.7178 30.8028C48.9471 30.9785 49.1147 31.1584 49.2112 31.3325C49.3076 31.5065 49.331 31.6712 49.2799 31.817C49.2289 31.9629 49.1044 32.0872 48.9136 32.1827C48.7229 32.2783 48.4696 32.3433 48.1682 32.374C47.8668 32.4047 47.5232 32.4004 47.157 32.3616C46.7908 32.3227 46.4091 32.2499 46.0339 32.1474C45.6586 32.0449 45.297 31.9146 44.9699 31.7641C44.3091 31.46 43.8285 31.0918 43.6336 30.7403C43.4388 30.3889 43.5457 30.083 43.9309 29.89C44.2236 29.7434 44.6613 29.6699 45.1864 29.6794ZM63.2895 37.6126L46.7858 39.9865L40.3931 62L56.2711 57.8201L63.2895 37.6126ZM38.4674 39.0335C38.6602 39.0337 38.8548 39.0755 39.046 39.1576C39.3237 39.277 39.5895 39.4797 39.8281 39.754C40.0667 40.0284 40.2735 40.3691 40.4367 40.7566C40.5999 41.1441 40.7163 41.5709 40.7793 42.0127C40.8422 42.4544 40.8504 42.9023 40.8035 43.3309C40.7088 44.1965 40.3951 44.9308 39.9315 45.3723C39.468 45.8138 38.8925 45.9263 38.3317 45.6851C38.0539 45.5657 37.7882 45.3631 37.5495 45.0887C37.3109 44.8144 37.1041 44.4737 36.9408 44.0861C36.7776 43.6986 36.6612 43.2718 36.5983 42.8301C36.5353 42.3884 36.5271 41.9404 36.574 41.5117C36.6521 40.7983 36.8796 40.1698 37.2215 39.7222C37.5635 39.2746 38.0011 39.0327 38.4674 39.0335ZM59.5046 40.5644C59.9501 40.5517 60.3193 40.7433 60.5522 41.1078C60.8258 41.5363 60.8907 42.1711 60.7325 42.8727C60.5744 43.5743 60.2062 44.2852 59.709 44.849C59.2118 45.4127 58.6262 45.7832 58.0812 45.8788C57.5362 45.9745 57.0763 45.7876 56.8027 45.3592C56.5291 44.9308 56.4642 44.296 56.6223 43.5944C56.7804 42.8928 57.1486 42.182 57.6458 41.6182C57.9282 41.298 58.2421 41.0369 58.564 40.8545C58.8859 40.6721 59.2074 40.5728 59.5046 40.5644ZM50.1256 41.9675C50.571 41.9548 50.9402 42.1463 51.1731 42.5109C51.4467 42.9393 51.5115 43.5742 51.3534 44.2758C51.1953 44.9774 50.8271 45.6882 50.3298 46.252C49.8326 46.8158 49.2471 47.1862 48.702 47.2818C48.157 47.3775 47.6971 47.1906 47.4236 46.7621C47.15 46.3337 47.0852 45.6988 47.2434 44.9973C47.4015 44.2957 47.7697 43.5848 48.2669 43.0211C48.5493 42.7009 48.8632 42.4399 49.1851 42.2575C49.5069 42.075 49.8284 41.9759 50.1256 41.9675ZM26.3701 43.718C26.563 43.7183 26.7577 43.7601 26.949 43.8424C27.2267 43.9618 27.4924 44.1645 27.731 44.4388C27.9696 44.7132 28.1764 45.0539 28.3396 45.4414C28.5028 45.829 28.6192 46.2558 28.6821 46.6975C28.745 47.1392 28.7533 47.5871 28.7064 48.0157C28.6594 48.4443 28.5583 48.8452 28.4087 49.1955C28.259 49.5458 28.0639 49.8386 27.8343 50.0572C27.6048 50.2759 27.3453 50.416 27.0708 50.4697C26.7963 50.5233 26.5121 50.4895 26.2344 50.37C25.9566 50.2506 25.6909 50.0479 25.4523 49.7736C25.2136 49.4992 25.0068 49.1585 24.8436 48.771C24.6804 48.3835 24.564 47.9566 24.5011 47.5149C24.4381 47.0732 24.4299 46.6253 24.4768 46.1966C24.5549 45.4832 24.7823 44.8545 25.1242 44.4069C25.4661 43.9592 25.9038 43.7173 26.3701 43.718ZM55.3522 51.7266C55.7975 51.714 56.1666 51.9055 56.3994 52.27C56.673 52.6984 56.7379 53.3332 56.5798 54.0347C56.4218 54.7363 56.0536 55.4472 55.5565 56.011C55.0592 56.5747 54.4737 56.9451 53.9286 57.0408C53.3836 57.1364 52.9237 56.9494 52.6502 56.521C52.3766 56.0926 52.3117 55.4577 52.4698 54.7562C52.6279 54.0546 52.996 53.3437 53.4932 52.7799C53.7757 52.4598 54.0896 52.1987 54.4115 52.0163C54.7334 51.8338 55.055 51.735 55.3522 51.7266ZM45.7498 54.2906C46.1952 54.2781 46.5642 54.4697 46.797 54.8343C47.0706 55.2626 47.1356 55.8974 46.9775 56.599C46.8194 57.3006 46.4513 58.0115 45.9541 58.5753C45.7079 58.8544 45.4374 59.089 45.1581 59.2657C44.8787 59.4423 44.5961 59.5576 44.3262 59.605C44.0563 59.6523 43.8045 59.6307 43.5852 59.5415C43.3658 59.4523 43.1832 59.2972 43.0478 59.085C42.7742 58.6565 42.7094 58.0217 42.8675 57.3201C43.0256 56.6186 43.3938 55.9077 43.891 55.344C44.1734 55.0238 44.4873 54.7627 44.8092 54.5803C45.1311 54.3979 45.4526 54.299 45.7498 54.2906Z" fill="url(#paint1_linear_303_4857)" fill-opacity="0.8"/>
<defs>
<linearGradient id="paint0_linear_303_4857" x1="49.2012" y1="15.6623" x2="67.4738" y2="15.6623" gradientUnits="userSpaceOnUse">
<stop stop-color="#B28EF8"/>
<stop offset="1" stop-color="#F476E5"/>
</linearGradient>
<linearGradient id="paint1_linear_303_4857" x1="0" y1="32.9683" x2="63.2895" y2="32.9683" gradientUnits="userSpaceOnUse">
<stop stop-color="#B28EF8"/>
<stop offset="1" stop-color="#F476E5"/>
</linearGradient>
</defs>
</svg>
