<svg width="22" height="22" viewBox="0 0 22 22" fill="none" xmlns="http://www.w3.org/2000/svg">
<path d="M5.43773 0L0.214039 3.93452L4.7595 5.38493L10.0419 1.04343L5.43773 0ZM10.7999 1.54946L5.19755 6.03404L7.62127 12.5696L8.02628 12.1979L8.22703 11.4149C8.09112 11.3219 7.97464 11.1706 7.89643 10.9856C7.81823 10.8006 7.78288 10.5927 7.7961 10.3954C7.80909 10.204 7.86715 10.0334 7.96141 9.90978C8.05567 9.78619 8.18092 9.71642 8.31801 9.71113C8.37469 9.70895 8.43248 9.71784 8.48981 9.73755C8.54017 9.75517 8.58977 9.78101 8.63755 9.81452L9.01437 8.34492C9.01895 8.3273 9.02454 8.30999 9.03113 8.29308L9.03388 8.2867C9.03848 8.2751 9.04355 8.2637 9.04906 8.25255L9.05334 8.24492C9.05879 8.23429 9.06464 8.2239 9.0709 8.21377C9.07877 8.20131 9.08722 8.18929 9.09624 8.17772L9.09937 8.17403C9.10749 8.16377 9.11604 8.15389 9.125 8.14442C9.13482 8.13405 9.14511 8.12418 9.15585 8.11486L9.15604 8.11476C9.16314 8.10884 9.17042 8.10315 9.17787 8.09771C9.18202 8.09436 9.18623 8.09108 9.19049 8.08789C9.19828 8.08264 9.20622 8.07765 9.21432 8.07294C9.21854 8.07025 9.22281 8.06764 9.22713 8.06511C9.234 8.06146 9.24096 8.058 9.24801 8.05474C9.25396 8.05164 9.25997 8.04868 9.26605 8.04587C9.2729 8.04316 9.27981 8.04063 9.28679 8.03829C9.29322 8.03575 9.2997 8.03337 9.30624 8.03116C9.3126 8.02934 9.31899 8.02768 9.32542 8.02618C9.3328 8.02407 9.34024 8.02218 9.34772 8.02049C9.35576 8.01909 9.36383 8.01792 9.37193 8.017C9.37776 8.01605 9.38362 8.01521 9.38949 8.01451H9.38996L9.39044 8.01436L10.9862 7.87114C11.0227 7.728 11.0875 7.6073 11.1736 7.52159C11.2598 7.43588 11.3643 7.38829 11.4762 7.38375C11.533 7.38156 11.5908 7.39045 11.6481 7.41017C11.8028 7.46386 11.9468 7.59377 12.0528 7.77543L12.6718 7.71994L10.8 1.54926L10.7999 1.54946ZM5.36427 1.92863C5.56508 1.93302 5.73526 1.97876 5.84596 2.05812C5.95666 2.13747 6.00106 2.24555 5.97165 2.36402C5.93786 2.50019 5.8092 2.63971 5.61394 2.75187C5.41869 2.86404 5.17284 2.93967 4.93049 2.96213C4.81048 2.97326 4.69494 2.97099 4.59047 2.95545C4.486 2.93992 4.39464 2.91143 4.32162 2.87161C4.24859 2.83179 4.19533 2.78142 4.16487 2.72338C4.13441 2.66533 4.12736 2.60075 4.1441 2.53332C4.16081 2.46589 4.20099 2.39693 4.26235 2.33037C4.32372 2.26381 4.40507 2.20097 4.50175 2.14542C4.59843 2.08986 4.70855 2.0427 4.82583 2.00662C4.94311 1.97053 5.06524 1.94623 5.18525 1.93511C5.2462 1.9295 5.30614 1.92732 5.36417 1.92863H5.36427ZM10.1211 3.10097C10.1777 3.09879 10.2355 3.10768 10.2929 3.12739C10.4611 3.1852 10.6161 3.3329 10.7239 3.53801C10.8317 3.74312 10.8834 3.98884 10.8677 4.22112C10.8599 4.33613 10.8357 4.44439 10.7967 4.53969C10.7576 4.635 10.7043 4.7155 10.6399 4.77658C10.5755 4.83767 10.5012 4.87815 10.4212 4.89571C10.3413 4.91328 10.2573 4.90758 10.174 4.87895C10.0907 4.85034 10.0097 4.79935 9.93577 4.72891C9.8618 4.65846 9.79625 4.56992 9.74287 4.46836C9.68948 4.3668 9.6493 4.2542 9.62463 4.13698C9.59996 4.01977 9.59127 3.90024 9.59906 3.78522C9.61205 3.59374 9.67013 3.42316 9.76439 3.29958C9.85866 3.176 9.98397 3.10624 10.1211 3.10097ZM0 4.80402L2.23018 10.4932L6.70251 12.5062L4.51998 6.2464L0 4.80397V4.80402ZM7.01849 5.67292C7.0752 5.67069 7.13302 5.67955 7.19039 5.69924C7.35858 5.75708 7.51361 5.9048 7.62139 6.1099C7.72917 6.31501 7.78087 6.56071 7.76511 6.79297C7.75731 6.90798 7.73318 7.01624 7.6941 7.11154C7.65502 7.20685 7.60175 7.28735 7.53734 7.34844C7.47293 7.40953 7.39863 7.45002 7.3187 7.46759C7.23876 7.48516 7.15475 7.47947 7.07146 7.45085C6.90325 7.39304 6.7482 7.24534 6.6404 7.04023C6.5326 6.83511 6.48089 6.5894 6.49663 6.35712C6.50962 6.16567 6.56768 5.9951 6.66193 5.87152C6.75618 5.74794 6.88142 5.67822 7.01849 5.67292ZM3.45324 6.32178C3.57088 6.31505 3.71835 6.38823 3.86704 6.52712C4.01572 6.66601 4.15503 6.86071 4.25791 7.07343C4.31241 7.18609 4.35512 7.30059 4.3836 7.41038C4.41208 7.52017 4.42578 7.6231 4.42391 7.7133C4.42203 7.8035 4.40463 7.8792 4.37269 7.93607C4.34074 7.99294 4.29489 8.02988 4.23774 8.04477C4.1223 8.07479 3.96788 8.01319 3.80846 7.87353C3.64903 7.73387 3.49764 7.52758 3.38761 7.30005C3.27761 7.07259 3.21794 6.84252 3.22171 6.66042C3.22549 6.47832 3.2924 6.3591 3.40773 6.32896C3.42225 6.32512 3.43741 6.32273 3.45324 6.32178ZM15.9536 8.32628L10.6333 8.8037L16.0323 12.7881L21.4236 11.9428L15.9536 8.32613V8.32628ZM2.21158 8.80764C2.32921 8.80086 2.4767 8.87403 2.62541 9.01292C2.77412 9.15182 2.91344 9.34654 3.01634 9.55929C3.12639 9.78681 3.1861 10.017 3.18231 10.1991C3.17853 10.3813 3.11157 10.5005 2.99617 10.5306C2.88074 10.5606 2.72632 10.499 2.5669 10.3594C2.40747 10.2197 2.25608 10.0134 2.14604 9.78591C2.03601 9.55841 1.97632 9.32829 1.98011 9.14617C1.98389 8.96404 2.05083 8.84482 2.16621 8.81472C2.18073 8.81095 2.19594 8.80862 2.21177 8.80774L2.21158 8.80764ZM9.68055 9.19712L7.70921 16.8835L13.1962 21.8414L15.4337 13.443L9.68055 9.19722V9.19712ZM15.7072 9.75386C15.8545 9.75672 16.0165 9.77994 16.1794 9.82149C16.3423 9.86304 16.501 9.92166 16.6418 9.99229C16.7555 10.0493 16.8551 10.113 16.9348 10.1795C17.0145 10.2461 17.0727 10.3143 17.1062 10.3802C17.1398 10.4461 17.1479 10.5085 17.1301 10.5638C17.1124 10.6191 17.0691 10.6662 17.0028 10.7024C16.9365 10.7386 16.8485 10.7632 16.7437 10.7748C16.6389 10.7865 16.5195 10.7849 16.3922 10.7701C16.2649 10.7554 16.1322 10.7278 16.0018 10.689C15.8713 10.6501 15.7457 10.6008 15.6319 10.5437C15.4023 10.4285 15.2352 10.289 15.1674 10.1558C15.0997 10.0227 15.1369 9.90679 15.2708 9.83367C15.3725 9.77812 15.5246 9.75032 15.7072 9.75391L15.7072 9.75386ZM22 12.7597L16.2632 13.6592L14.041 22L19.5603 20.4162L22 12.7597ZM13.3716 13.2981C13.4386 13.2982 13.5063 13.314 13.5727 13.3451C13.6693 13.3904 13.7617 13.4671 13.8446 13.5711C13.9276 13.6751 13.9994 13.8041 14.0562 13.951C14.1129 14.0978 14.1534 14.2595 14.1752 14.4269C14.1971 14.5942 14.2 14.764 14.1837 14.9264C14.1507 15.2543 14.0417 15.5326 13.8806 15.6998C13.7194 15.8671 13.5194 15.9097 13.3244 15.8184C13.2279 15.7731 13.1355 15.6963 13.0526 15.5924C12.9696 15.4884 12.8977 15.3594 12.841 15.2125C12.7842 15.0657 12.7438 14.904 12.7219 14.7366C12.7 14.5692 12.6971 14.3995 12.7135 14.2371C12.7406 13.9668 12.8197 13.7286 12.9385 13.559C13.0574 13.3894 13.2095 13.2978 13.3716 13.2981ZM20.6843 13.8782C20.8392 13.8733 20.9675 13.9459 21.0485 14.084C21.1436 14.2464 21.1662 14.4869 21.1112 14.7527C21.0562 15.0186 20.9282 15.2879 20.7554 15.5016C20.5826 15.7151 20.379 15.8555 20.1896 15.8918C20.0001 15.928 19.8402 15.8572 19.7451 15.6949C19.65 15.5325 19.6275 15.292 19.6824 15.0262C19.7374 14.7604 19.8654 14.491 20.0382 14.2774C20.1364 14.1561 20.2455 14.0572 20.3574 13.9881C20.4693 13.9189 20.5811 13.8814 20.6844 13.8782L20.6843 13.8782ZM17.4241 14.4098C17.5789 14.405 17.7073 14.4775 17.7882 14.6157C17.8833 14.778 17.9059 15.0185 17.8509 15.2844C17.7959 15.5502 17.668 15.8195 17.4951 16.0332C17.3223 16.2468 17.1187 16.3871 16.9293 16.4234C16.7398 16.4596 16.58 16.3888 16.4849 16.2264C16.3898 16.0641 16.3672 15.8235 16.4222 15.5577C16.4772 15.2919 16.6052 15.0226 16.778 14.809C16.8762 14.6877 16.9853 14.5888 17.0972 14.5196C17.2091 14.4505 17.3208 14.413 17.4242 14.4098H17.4241ZM9.16648 15.073C9.23353 15.0731 9.30123 15.089 9.3677 15.1201C9.46423 15.1654 9.55661 15.2422 9.63955 15.3462C9.7225 15.4501 9.79438 15.5792 9.85111 15.726C9.90784 15.8729 9.94829 16.0346 9.97016 16.2019C9.99204 16.3693 9.9949 16.539 9.97859 16.7014C9.96228 16.8638 9.92712 17.0157 9.87511 17.1484C9.8231 17.2812 9.75526 17.3921 9.67547 17.4749C9.59568 17.5578 9.50549 17.6109 9.41006 17.6312C9.31464 17.6515 9.21584 17.6387 9.1193 17.5934C9.02277 17.5482 8.93039 17.4714 8.84744 17.3674C8.76449 17.2635 8.6926 17.1344 8.63587 16.9876C8.57914 16.8407 8.53868 16.679 8.5168 16.5117C8.49492 16.3443 8.49206 16.1746 8.50837 16.0122C8.53551 15.7419 8.61455 15.5037 8.73339 15.334C8.85224 15.1644 9.00435 15.0727 9.16643 15.073L9.16648 15.073ZM19.2409 18.1075C19.3957 18.1027 19.524 18.1752 19.6049 18.3133C19.7001 18.4756 19.7226 18.7162 19.6677 18.982C19.6127 19.2478 19.4848 19.5172 19.3119 19.7308C19.1391 19.9444 18.9355 20.0847 18.7461 20.121C18.5566 20.1572 18.3968 20.0864 18.3017 19.924C18.2066 19.7617 18.184 19.5212 18.239 19.2553C18.2939 18.9895 18.4219 18.7202 18.5947 18.5066C18.6929 18.3852 18.802 18.2863 18.9139 18.2172C19.0258 18.1481 19.1376 18.1105 19.2409 18.1074V18.1075ZM15.9031 19.0789C16.0579 19.0742 16.1862 19.1468 16.2671 19.2849C16.3622 19.4472 16.3848 19.6878 16.3298 19.9536C16.2749 20.2194 16.1469 20.4888 15.9741 20.7024C15.8885 20.8081 15.7944 20.897 15.6974 20.964C15.6003 21.0309 15.502 21.0746 15.4082 21.0925C15.3144 21.1105 15.2269 21.1023 15.1506 21.0685C15.0744 21.0347 15.0109 20.9759 14.9638 20.8955C14.8687 20.7332 14.8462 20.4926 14.9011 20.2268C14.9561 19.961 15.0841 19.6917 15.2569 19.478C15.3551 19.3567 15.4642 19.2578 15.5761 19.1887C15.688 19.1196 15.7998 19.0821 15.9031 19.0789L15.9031 19.0789Z" fill="url(#paint0_linear_260_6210)" fill-opacity="0.8"/>
<defs>
<linearGradient id="paint0_linear_260_6210" x1="0" y1="11" x2="22" y2="11" gradientUnits="userSpaceOnUse">
<stop stop-color="#B28EF8"/>
<stop offset="1" stop-color="#F476E5"/>
</linearGradient>
</defs>
</svg>
