<svg width="8" height="8" viewBox="0 0 8 8" fill="none" xmlns="http://www.w3.org/2000/svg">
<path d="M4 8C1.78824 8 0 6.21176 0 4C0 1.78824 1.78824 0 4 0C6.21176 0 8 1.78824 8 4C8 6.21176 6.21176 8 4 8ZM4 0.470588C2.04706 0.470588 0.470588 2.04706 0.470588 4C0.470588 5.95294 2.04706 7.52941 4 7.52941C5.95294 7.52941 7.52941 5.95294 7.52941 4C7.52941 2.04706 5.95294 0.470588 4 0.470588Z" fill="white"/>
<path d="M1.88232 3.76465H6.11762V4.23524H1.88232V3.76465Z" fill="white"/>
<path d="M3.76465 1.88281H4.23524V6.11811H3.76465V1.88281Z" fill="white"/>
</svg>
