<svg width="153" height="63" viewBox="0 0 153 63" fill="none" xmlns="http://www.w3.org/2000/svg">
<path d="M0.666667 33C0.666667 33.7364 1.26362 34.3333 2 34.3333C2.73638 34.3333 3.33333 33.7364 3.33333 33C3.33333 32.2636 2.73638 31.6667 2 31.6667C1.26362 31.6667 0.666667 32.2636 0.666667 33ZM150.167 33C150.167 33.7364 150.764 34.3333 151.5 34.3333C152.236 34.3333 152.833 33.7364 152.833 33C152.833 32.2636 152.236 31.6667 151.5 31.6667C150.764 31.6667 150.167 32.2636 150.167 33ZM2 33V33.25H151.5V33V32.75H2V33Z" fill="url(#paint0_linear_1265_3035)"/>
<path d="M0.666667 61C0.666667 61.7364 1.26362 62.3333 2 62.3333C2.73638 62.3333 3.33333 61.7364 3.33333 61C3.33333 60.2636 2.73638 59.6667 2 59.6667C1.26362 59.6667 0.666667 60.2636 0.666667 61ZM150.167 61C150.167 61.7364 150.764 62.3333 151.5 62.3333C152.236 62.3333 152.833 61.7364 152.833 61C152.833 60.2636 152.236 59.6667 151.5 59.6667C150.764 59.6667 150.167 60.2636 150.167 61ZM2 61V61.25H151.5V61V60.75H2V61Z" fill="url(#paint1_linear_1265_3035)"/>
<g filter="url(#filter0_d_1265_3035)">
<path d="M83.9912 1L78.584 5.19695L74.7674 1.10654L70.9488 5.19695L66.0012 1.31962L67.9795 9H81.907L83.9912 1ZM74.756 4.67563L76.2539 6.05304L74.756 8.03347L73.2581 6.05304L74.756 4.67563ZM69.6004 6.01682C70.1145 6.01682 70.5194 6.42411 70.5194 6.94159C70.5194 7.45864 70.1146 7.86422 69.6003 7.86422C69.0861 7.86422 68.681 7.45864 68.681 6.94152C68.681 6.42441 69.0861 6.01682 69.6004 6.01682ZM80.237 6.01682C80.7511 6.01682 81.1561 6.42411 81.1561 6.94159C81.1561 7.45864 80.7512 7.86422 80.237 7.86422C79.7227 7.86422 79.3176 7.45864 79.3176 6.94152C79.3176 6.42441 79.7228 6.01682 80.237 6.01682Z" fill="url(#paint2_linear_1265_3035)"/>
</g>
<g filter="url(#filter1_d_1265_3035)">
<path d="M79.8104 10C78.0264 10 76.4473 10.9006 75.5038 12.2705C75.2986 12.5245 75.1131 12.7939 74.9489 13.0762C72.1537 7.82816 65.1786 9.78379 65.0045 15.3303C64.8189 21.2416 72.555 22.7388 74.949 28.6402C76.7473 23.9582 81.8596 21.8237 83.9834 18.3662C84.6437 17.4912 85.0363 16.4032 85.0363 15.226C85.0364 14.4999 84.8842 13.7819 84.5895 13.1184C84.5854 13.1072 84.5809 13.0966 84.5766 13.0855C84.5755 13.083 84.5741 13.0806 84.5731 13.0782C84.0309 11.6627 82.9194 10.7311 81.6104 10.3206L81.6049 10.3188C81.0302 10.1077 80.4227 9.99972 79.8104 10ZM79.8104 11.0951C82.0983 11.0951 83.9413 12.9381 83.9413 15.226C83.9413 16.67 83.2071 17.9376 82.0901 18.6756C82.6913 17.5008 82.5942 15.8066 81.7166 14.2865C80.7022 12.5296 78.9624 11.5598 77.4941 11.8018C78.1541 11.3554 78.9506 11.0951 79.8104 11.0951Z" fill="#6DA0E1"/>
</g>
<path d="M62.6572 10C62.9061 10 63.3945 10.0724 63.7529 10.1719C64.1112 10.2713 64.5093 10.425 64.8975 10.7051L64.5791 11.2744C64.4098 11.5908 64.1405 12.2241 63.9912 12.667C63.7524 13.3898 63.7129 13.6342 63.7129 14.791C63.7029 15.8937 63.7425 16.2193 63.9316 16.8701C64.0611 17.295 64.3396 18.0271 64.5586 18.4971C64.7775 18.967 65.1564 19.6625 65.4053 20.0332C65.6442 20.4038 65.8332 20.7117 65.8232 20.7207C65.8056 20.7283 65.6647 20.7471 65.4863 20.7744C65.5311 20.7713 65.5746 20.7677 65.6143 20.7656C65.8929 20.7566 65.9929 20.82 66.2715 21.1904C66.4507 21.4254 66.8593 21.8682 67.168 22.1846C67.5065 22.519 67.6851 22.7632 67.6055 22.7812C67.5452 22.7994 66.9286 22.8626 66.2422 22.9258C65.5254 22.9891 64.5196 23.0164 63.8525 22.9893C63.2254 22.9531 62.3691 22.8902 61.9609 22.8359C61.5527 22.7817 61.1441 22.7005 61.0644 22.6553C60.985 22.619 60.9457 22.5283 60.9756 22.4561C61.0063 22.3924 61.3639 22.1664 61.7715 21.9678C62.4584 21.6152 62.5781 21.5879 63.5537 21.5156C64.3601 21.4614 64.6391 21.4078 64.7685 21.2812C64.8679 21.191 64.9374 21.0646 64.9277 20.9922C64.9078 20.9199 64.9873 20.8385 65.0967 20.8203C65.1126 20.8164 65.1316 20.8131 65.1523 20.8096C65.0073 20.8144 64.9473 20.7936 64.9473 20.7295C64.9471 20.6752 64.8678 20.5492 64.7685 20.459C64.6192 20.3144 64.3997 20.2956 62.956 20.3047C61.8809 20.3047 60.9844 20.2596 60.3672 20.1602C59.8495 20.0788 59.1028 19.9068 58.7246 19.7803C58.3464 19.6628 57.8489 19.4554 57.6299 19.3379C57.2814 19.1481 57.2514 19.1026 57.3809 18.9941C57.4605 18.9309 58.1772 18.6418 58.9736 18.3525C59.77 18.0724 60.5169 17.7469 60.6465 17.6475C60.8157 17.5029 60.8655 17.3762 60.8457 17.1504C60.8258 16.9515 60.7257 16.7794 60.5664 16.6709C60.3377 16.5084 60.2478 16.4995 59.3525 16.5898C58.8149 16.6441 57.749 16.6895 56.9824 16.6895C56.1463 16.6894 55.3002 16.635 54.8721 16.5537C54.4739 16.4814 53.9662 16.3548 53.7471 16.2734C53.5281 16.1921 53.2496 16.056 53.1201 15.9746C52.8911 15.83 52.9006 15.8211 53.9658 15.333C54.5532 15.0528 55.3301 14.6554 55.6885 14.4385C56.0469 14.2215 56.7336 13.7512 57.2314 13.3896C57.7292 13.0281 58.6851 12.2601 59.3721 11.6816C60.059 11.0941 60.7956 10.533 61.0146 10.4336C61.2337 10.3251 61.5925 10.1902 61.8115 10.127C62.0305 10.0637 62.4084 10.0091 62.6572 10ZM88.4434 10.0361C88.9211 10.0542 89.2596 10.1352 89.7373 10.334C90.2151 10.5419 90.7132 10.8947 91.6289 11.6719C92.3158 12.2594 93.2816 13.028 93.7695 13.3896C94.2573 13.7512 94.954 14.2215 95.3125 14.4385C95.6709 14.6554 96.4478 15.0528 97.0351 15.333C98.0997 15.8208 98.1104 15.8302 97.8818 15.9746C97.7524 16.056 97.4729 16.1921 97.2539 16.2734C97.0347 16.3548 96.5269 16.4814 96.1289 16.5537C95.7007 16.635 94.8546 16.6895 94.0185 16.6895C93.2519 16.6895 92.1767 16.6346 90.6435 16.4629L90.3848 16.6895C90.2255 16.8341 90.126 17.0148 90.126 17.1865C90.1261 17.3491 90.2152 17.53 90.3545 17.6475C90.4839 17.7559 91.2309 18.0723 92.0273 18.3525C92.8238 18.6418 93.5311 18.9128 93.5908 18.958C93.6603 19.0032 93.6997 19.0757 93.6699 19.1299C93.6395 19.1843 93.3611 19.338 93.043 19.4824C92.7343 19.618 92.2463 19.7985 91.9775 19.8799C91.6988 19.9612 91.0718 20.0876 90.584 20.1689C90.0165 20.2593 89.0705 20.3047 86.3525 20.3047L86.1728 20.5762C86.0573 20.7531 86.0049 20.8099 85.8437 20.8076C85.9633 20.8384 86.0534 20.9139 86.0537 20.9824C86.0537 21.0547 86.133 21.1909 86.2226 21.2812C86.3621 21.4078 86.641 21.4614 87.4473 21.5156C88.4229 21.5879 88.5425 21.6152 89.2295 21.9678C89.6371 22.1664 89.9947 22.3924 90.0254 22.4561C90.0552 22.5283 90.016 22.619 89.9365 22.6553C89.8569 22.7005 89.4482 22.7817 89.04 22.8359C88.6318 22.8902 87.7756 22.9531 87.1484 22.9893C86.4814 23.0164 85.4755 22.9891 84.7588 22.9258C84.073 22.8626 83.4568 22.7994 83.3857 22.7812C83.316 22.7632 83.4945 22.519 83.833 22.1846C84.1416 21.8682 84.5501 21.4254 84.7393 21.1904C84.998 20.8561 85.1378 20.7568 85.3369 20.7568C85.3694 20.7568 85.4051 20.7601 85.4424 20.7617C85.2995 20.7426 85.1925 20.7274 85.1777 20.7207C85.1678 20.7117 85.3767 20.3681 85.6455 19.9434C85.9143 19.5185 86.2933 18.8311 86.4824 18.4062C86.6815 17.9814 86.9399 17.2948 87.0693 16.8701C87.2585 16.2193 87.298 15.9027 87.2881 14.791C87.2781 13.6432 87.2486 13.3808 87.0098 12.667C86.8604 12.2241 86.6019 11.6089 86.4326 11.3105C86.2733 11.0122 86.1635 10.7137 86.1934 10.6504C86.224 10.5959 86.4328 10.4605 86.6514 10.3613C86.8704 10.2619 87.2187 10.1451 87.4277 10.0908H87.418C87.6271 10.0456 88.085 10.0181 88.4434 10.0361Z" fill="#F3F3FF"/>
<path d="M62.6572 10V9.74983L62.6481 9.75017L62.6572 10ZM63.7529 10.1719L63.8198 9.93098L63.8198 9.93097L63.7529 10.1719ZM64.8975 10.7051L65.1157 10.8271L65.2244 10.6327L65.0437 10.5024L64.8975 10.7051ZM64.5791 11.2744L64.3609 11.1524L64.3587 11.1565L64.5791 11.2744ZM63.9912 12.667L63.7543 12.5871L63.7538 12.5886L63.9912 12.667ZM63.7129 14.791L63.9629 14.7933V14.791H63.7129ZM63.9316 16.8701L63.6915 16.9399L63.6925 16.943L63.9316 16.8701ZM64.5586 18.4971L64.332 18.6027L64.332 18.6027L64.5586 18.4971ZM65.4053 20.0332L65.6154 19.8977L65.6128 19.8938L65.4053 20.0332ZM65.8232 20.7207L65.9225 20.9502L65.9606 20.9337L65.9913 20.9058L65.8232 20.7207ZM65.4863 20.7744L65.4485 20.5273L65.5037 21.0238L65.4863 20.7744ZM65.6143 20.7656L65.6061 20.5157L65.6009 20.516L65.6143 20.7656ZM66.2715 21.1904L66.0717 21.3407L66.0727 21.342L66.2715 21.1904ZM67.168 22.1846L66.989 22.3592L66.9922 22.3624L67.168 22.1846ZM67.6055 22.7812L67.5501 22.5375L67.5418 22.5394L67.5335 22.5418L67.6055 22.7812ZM66.2422 22.9258L66.2642 23.1748L66.2651 23.1747L66.2422 22.9258ZM63.8525 22.9893L63.8381 23.2389L63.8424 23.2391L63.8525 22.9893ZM61.9609 22.8359L61.928 23.0838L61.928 23.0838L61.9609 22.8359ZM61.0644 22.6553L61.1878 22.4378L61.1782 22.4324L61.1681 22.4278L61.0644 22.6553ZM60.9756 22.4561L60.7504 22.3474L60.7473 22.3539L60.7445 22.3606L60.9756 22.4561ZM61.7715 21.9678L61.881 22.1926L61.8856 22.1902L61.7715 21.9678ZM63.5537 21.5156L63.5369 21.2662L63.5352 21.2663L63.5537 21.5156ZM64.7685 21.2812L64.6004 21.096L64.5938 21.1025L64.7685 21.2812ZM64.9277 20.9922L65.1755 20.9591L65.1733 20.9422L65.1688 20.9258L64.9277 20.9922ZM65.0967 20.8203L65.1376 21.0669L65.1473 21.0653L65.1568 21.063L65.0967 20.8203ZM65.1523 20.8096L65.1946 21.056L65.144 20.5597L65.1523 20.8096ZM64.9473 20.7295L65.1973 20.7295L65.1973 20.7287L64.9473 20.7295ZM64.7685 20.459L64.5945 20.6387L64.6003 20.6439L64.7685 20.459ZM62.956 20.3047L62.956 20.5547L62.9576 20.5547L62.956 20.3047ZM60.3672 20.1602L60.4069 19.9133L60.406 19.9132L60.3672 20.1602ZM58.7246 19.7803L58.8039 19.5431L58.7988 19.5415L58.7246 19.7803ZM57.6299 19.3379L57.5103 19.5574L57.5117 19.5582L57.6299 19.3379ZM57.3809 18.9941L57.2253 18.7983L57.2203 18.8025L57.3809 18.9941ZM58.9736 18.3525L58.8907 18.1167L58.8883 18.1176L58.9736 18.3525ZM60.6465 17.6475L60.7989 17.846L60.8089 17.8375L60.6465 17.6475ZM60.8457 17.1504L61.0948 17.1285L61.0945 17.1255L60.8457 17.1504ZM60.5664 16.6709L60.4216 16.8748L60.4257 16.8775L60.5664 16.6709ZM59.3525 16.5898L59.3274 16.3411L59.3274 16.3411L59.3525 16.5898ZM56.9824 16.6895L56.9824 16.9395H56.9824V16.6895ZM54.8721 16.5537L54.9187 16.3081L54.9167 16.3077L54.8721 16.5537ZM53.7471 16.2734L53.66 16.5078L53.66 16.5078L53.7471 16.2734ZM53.1201 15.9746L52.9866 16.186L52.9871 16.1863L53.1201 15.9746ZM53.9658 15.333L54.07 15.5603L54.0735 15.5586L53.9658 15.333ZM55.6885 14.4385L55.8179 14.6523L55.8179 14.6523L55.6885 14.4385ZM57.2314 13.3896L57.3784 13.5919L57.3784 13.5919L57.2314 13.3896ZM59.3721 11.6816L59.5331 11.8729L59.5346 11.8716L59.3721 11.6816ZM61.0146 10.4336L61.118 10.6614L61.1256 10.6576L61.0146 10.4336ZM61.8115 10.127L61.7422 9.88677L61.7421 9.88677L61.8115 10.127ZM88.4434 10.0361L88.4308 10.2858L88.4339 10.286L88.4434 10.0361ZM89.7373 10.334L89.837 10.1047L89.8333 10.1032L89.7373 10.334ZM91.6289 11.6719L91.7914 11.4819L91.7907 11.4813L91.6289 11.6719ZM93.7695 13.3896L93.6207 13.5905L93.6207 13.5905L93.7695 13.3896ZM95.3125 14.4385L95.183 14.6523L95.183 14.6523L95.3125 14.4385ZM97.0351 15.333L96.9275 15.5587L96.931 15.5603L97.0351 15.333ZM97.8818 15.9746L98.0149 16.1863L98.0153 16.186L97.8818 15.9746ZM97.2539 16.2734L97.3409 16.5078L97.3409 16.5078L97.2539 16.2734ZM96.1289 16.5537L96.0842 16.3077L96.0823 16.3081L96.1289 16.5537ZM94.0185 16.6895L94.0185 16.9395H94.0185V16.6895ZM90.6435 16.4629L90.6714 16.2144L90.5618 16.2022L90.4789 16.2748L90.6435 16.4629ZM90.3848 16.6895L90.2201 16.5013L90.2167 16.5044L90.3848 16.6895ZM90.126 17.1865H89.876L89.876 17.1867L90.126 17.1865ZM90.3545 17.6475L90.1933 17.8386L90.1939 17.8391L90.3545 17.6475ZM92.0273 18.3525L92.1127 18.1175L92.1103 18.1167L92.0273 18.3525ZM93.5908 18.958L93.44 19.1574L93.4471 19.1627L93.4545 19.1676L93.5908 18.958ZM93.6699 19.1299L93.8881 19.252L93.8889 19.2505L93.6699 19.1299ZM93.043 19.4824L93.1435 19.7113L93.1463 19.7101L93.043 19.4824ZM91.9775 19.8799L92.0476 20.1199L92.0499 20.1192L91.9775 19.8799ZM90.584 20.1689L90.6233 20.4158L90.6251 20.4155L90.584 20.1689ZM86.3525 20.3047L86.3525 20.0547L86.2182 20.0547L86.1441 20.1667L86.3525 20.3047ZM86.1728 20.5762L85.9644 20.4382L85.9635 20.4395L86.1728 20.5762ZM85.8437 20.8076L85.8472 20.5576L85.7814 21.0497L85.8437 20.8076ZM86.0537 20.9824H86.3037L86.3037 20.9813L86.0537 20.9824ZM86.2226 21.2812L86.0448 21.4575L86.0546 21.4664L86.2226 21.2812ZM87.4473 21.5156L87.4657 21.2663L87.464 21.2662L87.4473 21.5156ZM89.2295 21.9678L89.1153 22.1902L89.12 22.1925L89.2295 21.9678ZM90.0254 22.4561L90.2565 22.3606L90.2537 22.354L90.2506 22.3475L90.0254 22.4561ZM89.9365 22.6553L89.8328 22.4278L89.8227 22.4324L89.8131 22.4378L89.9365 22.6553ZM89.04 22.8359L89.073 23.0838L89.073 23.0838L89.04 22.8359ZM87.1484 22.9893L87.1586 23.2391L87.1628 23.2388L87.1484 22.9893ZM84.7588 22.9258L84.7358 23.1747L84.7368 23.1748L84.7588 22.9258ZM83.3857 22.7812L83.323 23.0232L83.3238 23.0235L83.3857 22.7812ZM83.833 22.1846L84.0087 22.3624L84.012 22.3591L83.833 22.1846ZM84.7393 21.1904L84.934 21.3472L84.937 21.3434L84.7393 21.1904ZM85.3369 20.7568L85.3369 20.5068H85.3369V20.7568ZM85.4424 20.7617L85.4315 21.0115L85.4755 20.5139L85.4424 20.7617ZM85.1777 20.7207L85.0097 20.9058L85.0389 20.9323L85.0748 20.9485L85.1777 20.7207ZM85.6455 19.9434L85.4342 19.8097L85.4342 19.8097L85.6455 19.9434ZM86.4824 18.4062L86.256 18.3002L86.254 18.3046L86.4824 18.4062ZM87.0693 16.8701L87.3085 16.943L87.3094 16.9399L87.0693 16.8701ZM87.2881 14.791L87.0381 14.7932L87.0381 14.7933L87.2881 14.791ZM87.0098 12.667L87.2468 12.5877L87.2467 12.5871L87.0098 12.667ZM86.4326 11.3105L86.212 11.4283L86.2152 11.4339L86.4326 11.3105ZM86.1934 10.6504L85.9754 10.5278L85.9711 10.5356L85.9673 10.5437L86.1934 10.6504ZM86.6514 10.3613L86.548 10.1337L86.548 10.1337L86.6514 10.3613ZM87.4277 10.0908L87.4905 10.3328L87.4277 9.84082V10.0908ZM87.418 10.0908L87.3652 9.84646L87.418 10.3408V10.0908ZM62.6572 10V10.25C62.878 10.25 63.3433 10.3177 63.6861 10.4128L63.7529 10.1719L63.8198 9.93097C63.4457 9.8272 62.9343 9.75 62.6572 9.75V10ZM63.7529 10.1719L63.6861 10.4128C64.0261 10.5071 64.3943 10.6503 64.7512 10.9078L64.8975 10.7051L65.0437 10.5024C64.6243 10.1996 64.1964 10.0355 63.8198 9.93098L63.7529 10.1719ZM64.8975 10.7051L64.6793 10.5831L64.3609 11.1524L64.5791 11.2744L64.7973 11.3964L65.1157 10.8271L64.8975 10.7051ZM64.5791 11.2744L64.3587 11.1565C64.1817 11.4873 63.9072 12.1337 63.7543 12.5871L63.9912 12.667L64.2281 12.7469C64.3739 12.3144 64.638 11.6943 64.7995 11.3923L64.5791 11.2744ZM63.9912 12.667L63.7538 12.5886C63.6331 12.9538 63.5576 13.2134 63.5147 13.533C63.4725 13.8476 63.4629 14.2133 63.4629 14.791H63.7129H63.9629C63.9629 14.212 63.973 13.877 64.0103 13.5995C64.0468 13.327 64.1105 13.1029 64.2286 12.7454L63.9912 12.667ZM63.7129 14.791L63.4629 14.7888C63.4528 15.9047 63.4931 16.257 63.6916 16.9399L63.9316 16.8701L64.1717 16.8003C63.9919 16.1816 63.953 15.8827 63.9629 14.7933L63.7129 14.791ZM63.9316 16.8701L63.6925 16.943C63.8254 17.3792 64.1081 18.1222 64.332 18.6027L64.5586 18.4971L64.7852 18.3915C64.5711 17.9319 64.2968 17.2107 64.1708 16.7973L63.9316 16.8701ZM64.5586 18.4971L64.332 18.6027C64.5547 19.0806 64.9396 19.7882 65.1977 20.1726L65.4053 20.0332L65.6128 19.8938C65.3731 19.5368 65.0004 18.8534 64.7852 18.3915L64.5586 18.4971ZM65.4053 20.0332L65.1951 20.1687C65.314 20.353 65.4198 20.5207 65.4941 20.6427C65.5316 20.7041 65.5598 20.7518 65.5774 20.7834C65.5817 20.7912 65.5851 20.7974 65.5876 20.8022C65.5889 20.8045 65.5898 20.8064 65.5905 20.8077C65.5912 20.8091 65.5915 20.8098 65.5915 20.8097C65.5915 20.8097 65.5913 20.8093 65.5911 20.8088C65.5908 20.8082 65.5904 20.8073 65.5899 20.806C65.589 20.8039 65.5868 20.7985 65.5844 20.7907C65.5827 20.7855 65.5767 20.7663 65.5745 20.7401C65.5734 20.727 65.5722 20.7013 65.5787 20.6696C65.5852 20.6382 65.6032 20.5828 65.6552 20.5356L65.8232 20.7207L65.9913 20.9058C66.0436 20.8583 66.0618 20.8025 66.0684 20.7705C66.0751 20.7383 66.0739 20.7118 66.0727 20.6978C66.0703 20.6699 66.0638 20.6484 66.0612 20.6404C66.0553 20.6215 66.048 20.6057 66.0444 20.5978C66.0358 20.5795 66.0248 20.559 66.014 20.5397C65.9916 20.4996 65.9595 20.4454 65.921 20.3824C65.8437 20.2555 65.7355 20.084 65.6154 19.8977L65.4053 20.0332ZM65.8232 20.7207L65.724 20.4912C65.7468 20.4814 65.7651 20.4782 65.7573 20.4799C65.7564 20.4801 65.7526 20.4809 65.7448 20.4823C65.7295 20.485 65.7072 20.4885 65.6776 20.493C65.623 20.5013 65.5351 20.514 65.4485 20.5273L65.4863 20.7744L65.5242 21.0215C65.6159 21.0075 65.6877 20.9972 65.7526 20.9873C65.7826 20.9828 65.81 20.9785 65.8317 20.9747C65.8424 20.9728 65.8539 20.9706 65.8648 20.9682C65.8687 20.9674 65.8952 20.9619 65.9225 20.9502L65.8232 20.7207ZM65.4863 20.7744L65.5037 21.0238C65.5529 21.0204 65.5904 21.0173 65.6276 21.0153L65.6143 20.7656L65.6009 20.516C65.5587 20.5182 65.5093 20.5222 65.469 20.525L65.4863 20.7744ZM65.6143 20.7656L65.6224 21.0155C65.7402 21.0117 65.7748 21.0248 65.8074 21.0458C65.8594 21.0794 65.9299 21.1522 66.0717 21.3407L66.2715 21.1904L66.4713 21.0401C66.3345 20.8583 66.2156 20.7141 66.0784 20.6256C65.9217 20.5246 65.767 20.5105 65.6061 20.5158L65.6143 20.7656ZM66.2715 21.1904L66.0727 21.342C66.262 21.5904 66.6804 22.0428 66.989 22.3591L67.168 22.1846L67.3469 22.01C67.0383 21.6936 66.6393 21.2605 66.4703 21.0388L66.2715 21.1904ZM67.168 22.1846L66.9922 22.3624C67.1575 22.5257 67.2762 22.6597 67.3419 22.7493C67.3777 22.7982 67.3846 22.8164 67.3826 22.8108C67.3814 22.8074 67.3782 22.7976 67.3761 22.7829C67.3741 22.7687 67.372 22.7418 67.3797 22.7083C67.388 22.6722 67.4074 22.6303 67.4443 22.5948C67.4805 22.5602 67.5203 22.5442 67.5501 22.5375L67.6055 22.7812L67.6608 23.025C67.7006 23.016 67.7484 22.9961 67.7905 22.9556C67.8334 22.9145 67.8567 22.8652 67.8671 22.82C67.8852 22.7409 67.8644 22.6735 67.854 22.6441C67.8303 22.5771 67.7864 22.51 67.7452 22.4538C67.6568 22.3332 67.5169 22.1779 67.3437 22.0067L67.168 22.1846ZM67.6055 22.7812L67.5335 22.5418C67.5464 22.538 67.5487 22.5386 67.5207 22.5428C67.4999 22.5459 67.4706 22.5498 67.4331 22.5544C67.3582 22.5636 67.2557 22.575 67.1325 22.588C66.8865 22.6138 66.5618 22.6453 66.2192 22.6768L66.2422 22.9258L66.2651 23.1747C66.6089 23.1431 66.9358 23.1113 67.1847 23.0852C67.309 23.0722 67.4148 23.0604 67.494 23.0507C67.5334 23.0459 67.5676 23.0414 67.5947 23.0373C67.6146 23.0343 67.6495 23.0291 67.6774 23.0207L67.6055 22.7812ZM66.2422 22.9258L66.2202 22.6767C65.5131 22.7392 64.518 22.7661 63.8627 22.7395L63.8525 22.9893L63.8424 23.2391C64.5211 23.2666 65.5377 23.2389 66.2642 23.1748L66.2422 22.9258ZM63.8525 22.9893L63.8669 22.7397C63.2394 22.7035 62.3917 22.641 61.9939 22.5881L61.9609 22.8359L61.928 23.0838C62.3466 23.1394 63.2114 23.2027 63.8381 23.2388L63.8525 22.9893ZM61.9609 22.8359L61.9939 22.5881C61.7945 22.5616 61.5958 22.5286 61.4387 22.4971C61.3599 22.4813 61.294 22.4663 61.2448 22.4533C61.1855 22.4376 61.1756 22.4309 61.1878 22.4378L61.0644 22.6553L60.9411 22.8727C60.9931 22.9023 61.0642 22.9227 61.1166 22.9366C61.1792 22.9532 61.2559 22.9704 61.3403 22.9873C61.5095 23.0213 61.7192 23.056 61.928 23.0838L61.9609 22.8359ZM61.0644 22.6553L61.1681 22.4278C61.1861 22.436 61.1998 22.4503 61.2077 22.4681C61.2154 22.4856 61.2212 22.5163 61.2066 22.5515L60.9756 22.4561L60.7445 22.3606C60.6563 22.5741 60.7761 22.7986 60.9607 22.8828L61.0644 22.6553ZM60.9756 22.4561L61.2008 22.5647C61.1829 22.6016 61.1615 22.618 61.1728 22.6074C61.1773 22.6032 61.1876 22.5944 61.2058 22.5807C61.2418 22.5536 61.2952 22.5176 61.3638 22.4751C61.5003 22.3906 61.6841 22.2884 61.881 22.1925L61.7715 21.9678L61.662 21.743C61.4512 21.8457 61.2525 21.9559 61.1005 22.05C61.025 22.0968 60.9578 22.1416 60.9053 22.181C60.8793 22.2006 60.8535 22.2214 60.8309 22.2425C60.8152 22.2572 60.7759 22.2946 60.7504 22.3474L60.9756 22.4561ZM61.7715 21.9678L61.8856 22.1902C62.2295 22.0137 62.4084 21.9312 62.6154 21.879C62.8282 21.8254 63.0791 21.8015 63.5722 21.7649L63.5537 21.5156L63.5352 21.2663C63.0526 21.3021 62.7559 21.328 62.4932 21.3942C62.2248 21.4619 62.0004 21.5693 61.6573 21.7454L61.7715 21.9678ZM63.5537 21.5156L63.5705 21.7651C63.9735 21.738 64.2588 21.7103 64.4623 21.671C64.6625 21.6324 64.8248 21.5759 64.9433 21.46L64.7685 21.2812L64.5938 21.1025C64.5828 21.1132 64.5409 21.1467 64.3677 21.1801C64.1977 21.2128 63.9403 21.2391 63.5369 21.2662L63.5537 21.5156ZM64.7685 21.2812L64.9366 21.4663C65.0063 21.403 65.0659 21.3271 65.1081 21.2505C65.1444 21.1846 65.1912 21.0761 65.1755 20.9591L64.9277 20.9922L64.6799 21.0253C64.6763 20.9978 64.6816 20.9828 64.6806 20.9864C64.6801 20.9881 64.6774 20.9961 64.67 21.0095C64.655 21.0368 64.6301 21.0693 64.6005 21.0962L64.7685 21.2812ZM64.9277 20.9922L65.1688 20.9258C65.1905 21.0046 65.1491 21.054 65.1422 21.061C65.1328 21.0706 65.1302 21.0682 65.1376 21.0669L65.0967 20.8203L65.0557 20.5737C64.9538 20.5906 64.8568 20.638 64.7852 20.7109C64.7163 20.7812 64.6451 20.9075 64.6867 21.0586L64.9277 20.9922ZM65.0967 20.8203L65.1568 21.063C65.1619 21.0617 65.1709 21.06 65.1946 21.056L65.1523 20.8096L65.1101 20.5632C65.0922 20.5662 65.0633 20.571 65.0366 20.5776L65.0967 20.8203ZM65.1523 20.8096L65.144 20.5597C65.1134 20.5607 65.0933 20.5601 65.0809 20.5591C65.0672 20.5579 65.0712 20.5567 65.0843 20.5617C65.099 20.5673 65.1328 20.5837 65.1613 20.6229C65.1909 20.6638 65.1973 20.7052 65.1973 20.7295H64.9473H64.6973C64.6973 20.7859 64.7111 20.8539 64.7565 20.9165C64.8008 20.9775 64.8587 21.0108 64.9065 21.029C64.9906 21.061 65.0866 21.0619 65.1606 21.0594L65.1523 20.8096ZM64.9473 20.7295L65.1973 20.7287C65.197 20.6643 65.1762 20.6091 65.1627 20.5779C65.1467 20.5409 65.1262 20.5047 65.1046 20.4714C65.0614 20.4051 65.0031 20.3344 64.9368 20.274L64.7685 20.459L64.6003 20.6439C64.6332 20.6738 64.6642 20.7113 64.6855 20.7441C64.6961 20.7604 64.7017 20.7715 64.7037 20.7762C64.7047 20.7784 64.7037 20.7766 64.7022 20.7712C64.701 20.7667 64.6973 20.752 64.6973 20.7303L64.9473 20.7295ZM64.7685 20.459L64.9425 20.2794C64.8051 20.1463 64.6413 20.0983 64.3689 20.0751C64.1009 20.0523 63.6721 20.0502 62.9545 20.0547L62.956 20.3047L62.9576 20.5547C63.6836 20.5501 64.0864 20.5529 64.3264 20.5733C64.562 20.5934 64.5827 20.627 64.5946 20.6386L64.7685 20.459ZM62.956 20.3047L62.956 20.0547C61.8843 20.0547 61.004 20.0095 60.4069 19.9133L60.3672 20.1602L60.3274 20.407C60.9649 20.5097 61.8774 20.5547 62.956 20.5547L62.956 20.3047ZM60.3672 20.1602L60.406 19.9132C59.8977 19.8333 59.1653 19.6641 58.8039 19.5432L58.7246 19.7803L58.6453 20.0174C59.0403 20.1495 59.8013 20.3243 60.3284 20.4071L60.3672 20.1602ZM58.7246 19.7803L58.7988 19.5415C58.4327 19.4278 57.9504 19.2261 57.748 19.1176L57.6299 19.3379L57.5117 19.5582C57.7474 19.6846 58.2602 19.8978 58.6504 20.019L58.7246 19.7803ZM57.6299 19.3379L57.7495 19.1184C57.6631 19.0713 57.6035 19.037 57.5629 19.0103C57.5429 18.9972 57.531 18.9882 57.5245 18.9828C57.5174 18.9768 57.5217 18.9792 57.5294 18.9899C57.5377 19.0015 57.5532 19.0275 57.5585 19.0662C57.5642 19.1072 57.5559 19.1429 57.5448 19.168C57.5397 19.1795 57.5346 19.1877 57.5312 19.1926C57.5278 19.1974 57.5255 19.2 57.5252 19.2003C57.525 19.2006 57.526 19.1994 57.5289 19.1967C57.5318 19.1941 57.5358 19.1905 57.5414 19.1857L57.3809 18.9941L57.2203 18.8025C57.1875 18.83 57.1231 18.8853 57.0875 18.9658C57.0665 19.0134 57.0545 19.0713 57.0633 19.1348C57.0718 19.1961 57.0972 19.2452 57.123 19.2812C57.1692 19.3456 57.2354 19.3935 57.2887 19.4284C57.3476 19.467 57.4224 19.5096 57.5103 19.5574L57.6299 19.3379ZM57.3809 18.9941L57.5364 19.1899C57.5236 19.2 57.5216 19.1989 57.5521 19.1834C57.5759 19.1715 57.6095 19.1557 57.6532 19.1362C57.7401 19.0974 57.8589 19.0476 58.0019 18.99C58.2874 18.8749 58.663 18.7313 59.059 18.5875L58.9736 18.3525L58.8883 18.1176C58.4879 18.263 58.1069 18.4086 57.815 18.5262C57.6693 18.5849 57.5442 18.6373 57.4495 18.6796C57.4023 18.7006 57.3606 18.72 57.3268 18.7371C57.2998 18.7507 57.258 18.7725 57.2253 18.7984L57.3809 18.9941ZM58.9736 18.3525L59.0566 18.5884C59.4598 18.4465 59.8506 18.2932 60.1581 18.1622C60.3116 18.0968 60.446 18.0363 60.5516 17.9851C60.6491 17.9378 60.743 17.8885 60.7987 17.8458L60.6465 17.6475L60.4942 17.4492C60.4952 17.4485 60.4923 17.4507 60.4835 17.4562C60.4752 17.4613 60.4639 17.4679 60.4493 17.4759C60.42 17.4921 60.3812 17.512 60.3333 17.5353C60.2374 17.5818 60.111 17.6388 59.9622 17.7022C59.6646 17.8289 59.2838 17.9784 58.8907 18.1167L58.9736 18.3525ZM60.6465 17.6475L60.8089 17.8375C60.9113 17.75 60.9977 17.6509 61.0491 17.5221C61.1003 17.3941 61.1065 17.2625 61.0947 17.1285L60.8457 17.1504L60.5967 17.1723C60.6047 17.2641 60.596 17.3087 60.5848 17.3367C60.5739 17.3639 60.5508 17.4004 60.4841 17.4574L60.6465 17.6475ZM60.8457 17.1504L61.0945 17.1255C61.0675 16.8564 60.9303 16.6162 60.7071 16.4643L60.5664 16.6709L60.4257 16.8775C60.5211 16.9425 60.5841 17.0466 60.5969 17.1753L60.8457 17.1504ZM60.5664 16.6709L60.7112 16.4671C60.65 16.4236 60.5825 16.379 60.5006 16.3455C60.4161 16.311 60.3283 16.2932 60.2266 16.2862C60.0376 16.2731 59.7667 16.2968 59.3274 16.3411L59.3525 16.5898L59.3776 16.8386C59.8337 16.7926 60.0553 16.7755 60.1922 16.785C60.2535 16.7892 60.287 16.7984 60.3117 16.8085C60.3389 16.8196 60.3685 16.8369 60.4216 16.8747L60.5664 16.6709ZM59.3525 16.5898L59.3274 16.3411C58.8006 16.3943 57.7436 16.4395 56.9824 16.4395V16.6895V16.9395C57.7545 16.9395 58.8292 16.8939 59.3776 16.8386L59.3525 16.5898ZM56.9824 16.6895L56.9824 16.4395C56.1504 16.4394 55.3232 16.385 54.9187 16.3081L54.8721 16.5537L54.8254 16.7993C55.2771 16.8851 56.1421 16.9394 56.9824 16.9395L56.9824 16.6895ZM54.8721 16.5537L54.9167 16.3077C54.5243 16.2365 54.0331 16.113 53.8341 16.0391L53.7471 16.2734L53.66 16.5078C53.8992 16.5966 54.4235 16.7263 54.8274 16.7997L54.8721 16.5537ZM53.7471 16.2734L53.8341 16.0391C53.6277 15.9624 53.3653 15.8334 53.2531 15.7629L53.1201 15.9746L52.9871 16.1863C53.1339 16.2785 53.4284 16.4218 53.66 16.5078L53.7471 16.2734ZM53.1201 15.9746L53.2536 15.7632C53.2232 15.744 53.2082 15.7341 53.1993 15.7273C53.1866 15.7175 53.2097 15.7313 53.2286 15.7685C53.2577 15.8256 53.2568 15.8946 53.2297 15.9487C53.212 15.9841 53.1921 15.9945 53.209 15.9816C53.24 15.958 53.3122 15.9164 53.4617 15.8435C53.6055 15.7734 53.8027 15.6827 54.07 15.5603L53.9658 15.333L53.8617 15.1057C53.5963 15.2273 53.3929 15.3208 53.2425 15.3941C53.0978 15.4647 52.9822 15.5259 52.9063 15.5836C52.8698 15.6114 52.8166 15.6571 52.7827 15.7247C52.7394 15.8112 52.7393 15.9095 52.7831 15.9954C52.8167 16.0614 52.8682 16.1035 52.8947 16.1238C52.925 16.147 52.9598 16.169 52.9866 16.186L53.1201 15.9746ZM53.9658 15.333L54.0735 15.5586C54.662 15.2779 55.4483 14.8761 55.8179 14.6523L55.6885 14.4385L55.559 14.2246C55.2118 14.4348 54.4444 14.8277 53.8582 15.1074L53.9658 15.333ZM55.6885 14.4385L55.8179 14.6523C56.1852 14.43 56.8786 13.955 57.3784 13.5919L57.2314 13.3896L57.0845 13.1874C56.5887 13.5475 55.9085 14.013 55.559 14.2246L55.6885 14.4385ZM57.2314 13.3896L57.3784 13.5919C57.8834 13.2251 58.8446 12.4526 59.5331 11.8729L59.3721 11.6816L59.211 11.4904C58.5256 12.0676 57.575 12.8311 57.0845 13.1874L57.2314 13.3896ZM59.3721 11.6816L59.5346 11.8716C59.8747 11.5807 60.2269 11.2966 60.5201 11.0736C60.6669 10.962 60.7974 10.8668 60.9035 10.7942C61.0142 10.7183 61.0852 10.6761 61.118 10.6612L61.0146 10.4336L60.9113 10.206C60.8345 10.2408 60.7314 10.306 60.6209 10.3817C60.5058 10.4605 60.3682 10.561 60.2175 10.6756C59.916 10.9049 59.5563 11.1951 59.2096 11.4917L59.3721 11.6816ZM61.0146 10.4336L61.1256 10.6576C61.3297 10.5566 61.6743 10.4268 61.8809 10.3671L61.8115 10.127L61.7421 9.88677C61.5106 9.95365 61.1377 10.0937 60.9037 10.2096L61.0146 10.4336ZM61.8115 10.127L61.8809 10.3671C62.0767 10.3106 62.4339 10.2583 62.6663 10.2498L62.6572 10L62.6481 9.75017C62.3829 9.75983 61.9843 9.81685 61.7422 9.88677L61.8115 10.127ZM88.4434 10.0361L88.4339 10.286C88.8779 10.3028 89.1872 10.3759 89.6413 10.5648L89.7373 10.334L89.8333 10.1032C89.332 9.89459 88.9642 9.80567 88.4528 9.78631L88.4434 10.0361ZM89.7373 10.334L89.6376 10.5632C90.0784 10.755 90.552 11.0858 91.4671 11.8625L91.6289 11.6719L91.7907 11.4813C90.8743 10.7036 90.3518 10.3287 89.837 10.1047L89.7373 10.334ZM91.6289 11.6719L91.4664 11.8619C92.1571 12.4526 93.1275 13.225 93.6207 13.5905L93.7695 13.3896L93.9184 13.1888C93.4358 12.8311 92.4745 12.0661 91.7914 11.4819L91.6289 11.6719ZM93.7695 13.3896L93.6207 13.5905C94.1133 13.9556 94.8166 14.4305 95.183 14.6523L95.3125 14.4385L95.442 14.2246C95.0915 14.0125 94.4013 13.5467 93.9184 13.1888L93.7695 13.3896ZM95.3125 14.4385L95.183 14.6523C95.5526 14.8761 96.3389 15.2779 96.9275 15.5586L97.0351 15.333L97.1428 15.1074C96.5566 14.8277 95.7891 14.4347 95.4419 14.2246L95.3125 14.4385ZM97.0351 15.333L96.931 15.5603C97.1981 15.6827 97.3953 15.7733 97.5391 15.8435C97.6886 15.9163 97.761 15.958 97.7922 15.9817C97.8093 15.9946 97.7896 15.9844 97.772 15.9496C97.7449 15.8961 97.7434 15.8272 97.7724 15.7696C97.7913 15.732 97.8146 15.7179 97.8021 15.7276C97.7934 15.7343 97.7786 15.7441 97.7483 15.7632L97.8818 15.9746L98.0153 16.186C98.0422 16.169 98.077 16.147 98.1073 16.1236C98.1338 16.1032 98.1855 16.0609 98.2189 15.9945C98.2625 15.9081 98.2616 15.8098 98.2182 15.724C98.1842 15.6568 98.1312 15.6113 98.0946 15.5835C98.0187 15.5258 97.9031 15.4646 97.7583 15.394C97.6078 15.3207 97.4045 15.2273 97.1393 15.1057L97.0351 15.333ZM97.8818 15.9746L97.7488 15.763C97.6369 15.8333 97.3736 15.9623 97.1669 16.0391L97.2539 16.2734L97.3409 16.5078C97.5723 16.4219 97.8679 16.2787 98.0149 16.1863L97.8818 15.9746ZM97.2539 16.2734L97.1669 16.0391C96.9678 16.113 96.4765 16.2365 96.0842 16.3077L96.1289 16.5537L96.1736 16.7997C96.5773 16.7264 97.1016 16.5966 97.3409 16.5078L97.2539 16.2734ZM96.1289 16.5537L96.0823 16.3081C95.6776 16.3849 94.8504 16.4395 94.0185 16.4395V16.6895V16.9395C94.8588 16.9395 95.7237 16.8851 96.1755 16.7993L96.1289 16.5537ZM94.0185 16.6895L94.0185 16.4395C93.2635 16.4395 92.1979 16.3854 90.6714 16.2144L90.6435 16.4629L90.6157 16.7113C92.1555 16.8838 93.2403 16.9395 94.0185 16.9395L94.0185 16.6895ZM90.6435 16.4629L90.4789 16.2748L90.2201 16.5014L90.3848 16.6895L90.5494 16.8776L90.8082 16.651L90.6435 16.4629ZM90.3848 16.6895L90.2167 16.5044C90.0255 16.678 89.876 16.921 89.876 17.1865H90.126H90.376C90.376 17.1087 90.4255 16.9901 90.5528 16.8745L90.3848 16.6895ZM90.126 17.1865L89.876 17.1867C89.8761 17.4316 90.0048 17.6795 90.1933 17.8386L90.3545 17.6475L90.5157 17.4564C90.4257 17.3805 90.376 17.2667 90.376 17.1864L90.126 17.1865ZM90.3545 17.6475L90.1939 17.8391C90.2532 17.8888 90.3516 17.9411 90.4485 17.9885C90.5549 18.0406 90.6899 18.1011 90.8435 18.1659C91.1513 18.2958 91.5419 18.4468 91.9444 18.5884L92.0273 18.3525L92.1103 18.1167C91.7163 17.9781 91.3352 17.8307 91.038 17.7053C90.8892 17.6425 90.7634 17.586 90.6684 17.5395C90.6208 17.5162 90.5829 17.4963 90.5546 17.4802C90.5234 17.4624 90.5135 17.4545 90.5151 17.4559L90.3545 17.6475ZM92.0273 18.3525L91.942 18.5875C92.3392 18.7318 92.7135 18.8712 92.9953 18.98C93.1364 19.0345 93.253 19.0808 93.3372 19.1158C93.3796 19.1334 93.4118 19.1475 93.4343 19.1578C93.4667 19.1728 93.4581 19.1711 93.44 19.1574L93.5908 18.958L93.7417 18.7586C93.7086 18.7337 93.6648 18.7135 93.644 18.7039C93.6132 18.6897 93.5742 18.6729 93.5294 18.6542C93.4393 18.6167 93.3181 18.5687 93.1754 18.5136C92.8895 18.4032 92.5119 18.2625 92.1127 18.1176L92.0273 18.3525ZM93.5908 18.958L93.4545 19.1676C93.4589 19.1705 93.4514 19.1677 93.4427 19.1497C93.4333 19.1304 93.4157 19.0732 93.4509 19.0093L93.6699 19.1299L93.8889 19.2505C93.9539 19.1324 93.9315 19.0119 93.8926 18.9315C93.8542 18.8524 93.7922 18.7908 93.7271 18.7484L93.5908 18.958ZM93.6699 19.1299L93.4518 19.0078C93.4699 18.9753 93.4897 18.9605 93.4832 18.9661C93.4818 18.9673 93.4755 18.9724 93.4622 18.9816C93.4357 18.9998 93.3956 19.0244 93.3423 19.0542C93.2367 19.1132 93.0941 19.1847 92.9396 19.2548L93.043 19.4824L93.1463 19.7101C93.31 19.6357 93.4656 19.5581 93.5864 19.4906C93.6463 19.4571 93.7013 19.424 93.7455 19.3936C93.7675 19.3785 93.7905 19.3615 93.8113 19.3434C93.8272 19.3296 93.8623 19.2981 93.8881 19.252L93.6699 19.1299ZM93.043 19.4824L92.9424 19.2535C92.6422 19.3854 92.1636 19.5624 91.9051 19.6406L91.9775 19.8799L92.0499 20.1192C92.3291 20.0347 92.8264 19.8506 93.1435 19.7113L93.043 19.4824ZM91.9775 19.8799L91.9075 19.6399C91.644 19.7168 91.0294 19.8412 90.5429 19.9224L90.584 20.1689L90.6251 20.4155C91.1141 20.334 91.7536 20.2057 92.0476 20.1199L91.9775 19.8799ZM90.584 20.1689L90.5447 19.9221C90.0007 20.0087 89.0761 20.0547 86.3525 20.0547L86.3525 20.3047L86.3525 20.5547C89.0648 20.5547 90.0323 20.51 90.6233 20.4158L90.584 20.1689ZM86.3525 20.3047L86.1441 20.1667L85.9644 20.4382L86.1728 20.5762L86.3813 20.7142L86.561 20.4427L86.3525 20.3047ZM86.1728 20.5762L85.9635 20.4395C85.9351 20.483 85.9152 20.5119 85.8987 20.533C85.8825 20.5536 85.8752 20.5593 85.8747 20.5596C85.8747 20.5596 85.8751 20.5593 85.8758 20.5589C85.8766 20.5584 85.8776 20.5579 85.8787 20.5573C85.8798 20.5568 85.8808 20.5564 85.8816 20.556C85.8821 20.5559 85.8824 20.5558 85.8826 20.5557C85.8828 20.5557 85.8829 20.5556 85.8829 20.5556C85.883 20.5556 85.883 20.5556 85.883 20.5556C85.8828 20.5557 85.8736 20.558 85.8472 20.5576L85.8437 20.8076L85.8402 21.0576C85.9542 21.0592 86.0691 21.0394 86.1761 20.9586C86.2642 20.892 86.3284 20.7953 86.3822 20.7128L86.1728 20.5762ZM85.8437 20.8076L85.7814 21.0497C85.8104 21.0572 85.828 21.0685 85.8333 21.0728C85.8357 21.0748 85.8305 21.0712 85.8234 21.0595C85.8164 21.0478 85.8039 21.0216 85.8037 20.9836L86.0537 20.9824L86.3037 20.9813C86.303 20.8399 86.2158 20.7408 86.1536 20.6889C86.0838 20.6307 85.9967 20.5888 85.9061 20.5655L85.8437 20.8076ZM86.0537 20.9824H85.8037C85.8037 21.0875 85.8526 21.1879 85.8875 21.249C85.9286 21.3211 85.9839 21.3955 86.0451 21.4572L86.2226 21.2812L86.4002 21.1053C86.3718 21.0766 86.3426 21.0377 86.3217 21.0011C86.3114 20.9831 86.3054 20.9696 86.3025 20.9616C86.2985 20.9507 86.3037 20.9596 86.3037 20.9824H86.0537ZM86.2226 21.2812L86.0546 21.4664C86.1755 21.5761 86.3349 21.6322 86.5378 21.6711C86.7424 21.7103 87.0274 21.7379 87.4305 21.7651L87.4473 21.5156L87.464 21.2662C87.0609 21.2391 86.8033 21.2128 86.6319 21.18C86.459 21.1469 86.4092 21.1129 86.3907 21.0961L86.2226 21.2812ZM87.4473 21.5156L87.4288 21.7649C87.9218 21.8015 88.1728 21.8254 88.3855 21.879C88.5926 21.9312 88.7714 22.0137 89.1153 22.1902L89.2295 21.9678L89.3436 21.7454C89.0006 21.5693 88.7762 21.4619 88.5077 21.3942C88.245 21.328 87.9483 21.3021 87.4657 21.2663L87.4473 21.5156ZM89.2295 21.9678L89.12 22.1925C89.3168 22.2884 89.5007 22.3906 89.6372 22.4751C89.7058 22.5176 89.7592 22.5536 89.7952 22.5807C89.8134 22.5944 89.8237 22.6032 89.8282 22.6074C89.8395 22.618 89.818 22.6016 89.8002 22.5647L90.0254 22.4561L90.2506 22.3475C90.2251 22.2946 90.1857 22.2572 90.17 22.2425C90.1475 22.2214 90.1216 22.2006 90.0957 22.181C90.0432 22.1416 89.976 22.0968 89.9004 22.05C89.7485 21.9559 89.5498 21.8457 89.339 21.743L89.2295 21.9678ZM90.0254 22.4561L89.7943 22.5515C89.7798 22.5163 89.7855 22.4856 89.7933 22.4681C89.8011 22.4503 89.8149 22.436 89.8328 22.4278L89.9365 22.6553L90.0402 22.8827C90.2248 22.7986 90.3446 22.5741 90.2565 22.3606L90.0254 22.4561ZM89.9365 22.6553L89.8131 22.4378C89.8254 22.4309 89.8155 22.4376 89.7562 22.4533C89.707 22.4663 89.6411 22.4813 89.5623 22.4971C89.4052 22.5286 89.2064 22.5616 89.0071 22.5881L89.04 22.8359L89.073 23.0838C89.2818 23.056 89.4915 23.0213 89.6607 22.9873C89.745 22.9704 89.8217 22.9532 89.8843 22.9366C89.9368 22.9227 90.0078 22.9023 90.0599 22.8727L89.9365 22.6553ZM89.04 22.8359L89.0071 22.5881C88.6093 22.641 87.7616 22.7035 87.134 22.7397L87.1484 22.9893L87.1628 23.2388C87.7896 23.2027 88.6544 23.1394 89.073 23.0838L89.04 22.8359ZM87.1484 22.9893L87.1383 22.7395C86.483 22.7661 85.4879 22.7392 84.7808 22.6767L84.7588 22.9258L84.7368 23.1748C85.4632 23.2389 86.4799 23.2666 87.1586 23.2391L87.1484 22.9893ZM84.7588 22.9258L84.7817 22.6768C84.4394 22.6453 84.115 22.6138 83.8677 22.588C83.7439 22.5751 83.6403 22.5637 83.5638 22.5544C83.4774 22.544 83.4456 22.5385 83.4476 22.539L83.3857 22.7812L83.3238 23.0235C83.3614 23.0331 83.4333 23.0423 83.5039 23.0508C83.5843 23.0605 83.6909 23.0723 83.8158 23.0853C84.0658 23.1114 84.3923 23.1431 84.7358 23.1747L84.7588 22.9258ZM83.3857 22.7812L83.4485 22.5393C83.4848 22.5487 83.5294 22.5703 83.5659 22.6131C83.6017 22.6552 83.6151 22.7006 83.6191 22.7332C83.623 22.7641 83.6192 22.7876 83.617 22.7987C83.6145 22.8107 83.6116 22.8182 83.6109 22.82C83.6105 22.8208 83.6206 22.7996 83.6569 22.7508C83.7244 22.66 83.8438 22.5254 84.0087 22.3624L83.833 22.1846L83.6573 22.0067C83.4837 22.1782 83.3446 22.3329 83.2557 22.4523C83.2138 22.5086 83.1712 22.5727 83.1464 22.6349C83.1358 22.6614 83.1139 22.722 83.123 22.795C83.1282 22.8368 83.1445 22.8896 83.1852 22.9373C83.2266 22.9859 83.278 23.0116 83.323 23.0232L83.3857 22.7812ZM83.833 22.1846L84.012 22.3591C84.3219 22.0414 84.7371 21.5918 84.934 21.3472L84.7393 21.1904L84.5445 21.0337C84.3631 21.2591 83.9614 21.695 83.654 22.01L83.833 22.1846ZM84.7393 21.1904L84.937 21.3434C85.064 21.1794 85.1455 21.0953 85.2069 21.0509C85.256 21.0154 85.2894 21.0068 85.3369 21.0068V20.7568V20.5068C85.1853 20.5068 85.0493 20.5479 84.914 20.6456C84.7911 20.7344 84.6733 20.8672 84.5415 21.0374L84.7393 21.1904ZM85.3369 20.7568L85.3369 21.0068C85.3637 21.0068 85.376 21.0091 85.4315 21.0115L85.4424 20.7617L85.4532 20.512C85.4341 20.5111 85.3751 20.5068 85.3369 20.5068L85.3369 20.7568ZM85.4424 20.7617L85.4755 20.5139C85.4041 20.5044 85.3435 20.4961 85.2994 20.4894C85.2772 20.486 85.2612 20.4834 85.2509 20.4815C85.2457 20.4805 85.2441 20.4801 85.2451 20.4803C85.2456 20.4804 85.2484 20.4811 85.2526 20.4824C85.2554 20.4832 85.2665 20.4865 85.2807 20.4929L85.1777 20.7207L85.0748 20.9485C85.1009 20.9603 85.1256 20.9659 85.1299 20.9669C85.1401 20.9693 85.1504 20.9713 85.1595 20.973C85.1779 20.9765 85.2004 20.9801 85.2246 20.9837C85.2734 20.9911 85.3377 21 85.4093 21.0095L85.4424 20.7617ZM85.1777 20.7207L85.3458 20.5356C85.4033 20.5878 85.4193 20.6499 85.4242 20.68C85.4293 20.7116 85.4271 20.7368 85.4256 20.7487C85.4227 20.773 85.4167 20.7907 85.4153 20.7949C85.4115 20.8063 85.4082 20.8128 85.4096 20.8097C85.4113 20.8061 85.4166 20.7959 85.4271 20.777C85.4474 20.7407 85.4792 20.6865 85.5211 20.6172C85.6044 20.4792 85.7228 20.2887 85.8568 20.077L85.6455 19.9434L85.4342 19.8097C85.2994 20.0228 85.1789 20.2165 85.0931 20.3587C85.0504 20.4294 85.015 20.4894 84.9905 20.5333C84.9787 20.5546 84.9671 20.576 84.9583 20.5945C84.9545 20.6026 84.9474 20.6178 84.9415 20.6354C84.939 20.6427 84.9324 20.6629 84.9292 20.689C84.9277 20.7019 84.9254 20.7279 84.9306 20.7601C84.9356 20.7908 84.9519 20.8533 85.0097 20.9058L85.1777 20.7207ZM85.6455 19.9434L85.8568 20.077C86.1304 19.6446 86.5156 18.9463 86.7108 18.5079L86.4824 18.4062L86.254 18.3046C86.0709 18.7159 85.6982 19.3925 85.4342 19.8097L85.6455 19.9434ZM86.4824 18.4062L86.7088 18.5123C86.9134 18.0757 87.176 17.3779 87.3085 16.943L87.0693 16.8701L86.8302 16.7973C86.7039 17.2118 86.4496 17.8872 86.256 18.3002L86.4824 18.4062ZM87.0693 16.8701L87.3094 16.9399C87.5078 16.2571 87.5481 15.9139 87.5381 14.7888L87.2881 14.791L87.0381 14.7933C87.0479 15.8915 87.0091 16.1815 86.8293 16.8003L87.0693 16.8701ZM87.2881 14.791L87.5381 14.7888C87.5331 14.2167 87.5234 13.8497 87.4827 13.5343C87.4412 13.2128 87.3685 12.9512 87.2468 12.5877L87.0098 12.667L86.7727 12.7463C86.8899 13.0966 86.9513 13.3232 86.9868 13.5982C87.0231 13.8795 87.0331 14.2175 87.0381 14.7932L87.2881 14.791ZM87.0098 12.667L87.2467 12.5871C87.0946 12.136 86.8301 11.5045 86.6501 11.1872L86.4326 11.3105L86.2152 11.4339C86.3736 11.7132 86.6263 12.3122 86.7729 12.7469L87.0098 12.667ZM86.4326 11.3105L86.6531 11.1928C86.5779 11.052 86.5158 10.9136 86.477 10.8068C86.4573 10.7527 86.4457 10.7127 86.4406 10.6877C86.4379 10.6749 86.4383 10.6723 86.4384 10.677C86.4385 10.6796 86.4386 10.6877 86.437 10.6994C86.4355 10.7104 86.4314 10.7317 86.4194 10.7571L86.1934 10.6504L85.9673 10.5437C85.9382 10.6052 85.9378 10.6642 85.9386 10.6924C85.9397 10.7267 85.945 10.7601 85.9509 10.7889C85.9629 10.847 85.9832 10.9121 86.0071 10.9779C86.0555 11.1108 86.128 11.2708 86.2121 11.4283L86.4326 11.3105ZM86.1934 10.6504L86.4113 10.7729C86.4042 10.7855 86.3978 10.7937 86.395 10.7972C86.3933 10.7992 86.392 10.8006 86.3913 10.8015C86.3905 10.8023 86.3901 10.8028 86.39 10.8028C86.39 10.8028 86.3903 10.8025 86.3909 10.8019C86.3915 10.8014 86.3924 10.8006 86.3936 10.7995C86.396 10.7974 86.3993 10.7946 86.4036 10.7912C86.4215 10.7768 86.4493 10.757 86.4861 10.7335C86.5595 10.6868 86.656 10.6338 86.7547 10.589L86.6514 10.3613L86.548 10.1337C86.4282 10.1881 86.311 10.2523 86.2177 10.3117C86.1712 10.3413 86.1273 10.3718 86.0907 10.4012C86.0639 10.4227 86.0093 10.4677 85.9754 10.5278L86.1934 10.6504ZM86.6514 10.3613L86.7547 10.589C86.9582 10.4966 87.2926 10.3842 87.4905 10.3328L87.4277 10.0908L87.3649 9.84883C87.1448 9.90595 86.7825 10.0273 86.548 10.1337L86.6514 10.3613ZM87.4277 10.0908V9.84082H87.418V10.0908V10.3408H87.4277V10.0908ZM87.418 10.0908L87.4708 10.3352C87.6507 10.2963 88.0848 10.2684 88.4308 10.2858L88.4434 10.0361L88.4559 9.78645C88.0851 9.76775 87.6034 9.79498 87.3652 9.84646L87.418 10.0908Z" fill="#6DA0E1"/>
<defs>
<filter id="filter0_d_1265_3035" x="65.0012" y="0" width="21.99" height="12" filterUnits="userSpaceOnUse" color-interpolation-filters="sRGB">
<feFlood flood-opacity="0" result="BackgroundImageFix"/>
<feColorMatrix in="SourceAlpha" type="matrix" values="0 0 0 0 0 0 0 0 0 0 0 0 0 0 0 0 0 0 127 0" result="hardAlpha"/>
<feOffset dx="1" dy="1"/>
<feGaussianBlur stdDeviation="1"/>
<feComposite in2="hardAlpha" operator="out"/>
<feColorMatrix type="matrix" values="0 0 0 0 1 0 0 0 0 1 0 0 0 0 1 0 0 0 0.5 0"/>
<feBlend mode="normal" in2="BackgroundImageFix" result="effect1_dropShadow_1265_3035"/>
<feBlend mode="normal" in="SourceGraphic" in2="effect1_dropShadow_1265_3035" result="shape"/>
</filter>
<filter id="filter1_d_1265_3035" x="64.0012" y="9" width="24.0351" height="22.6406" filterUnits="userSpaceOnUse" color-interpolation-filters="sRGB">
<feFlood flood-opacity="0" result="BackgroundImageFix"/>
<feColorMatrix in="SourceAlpha" type="matrix" values="0 0 0 0 0 0 0 0 0 0 0 0 0 0 0 0 0 0 127 0" result="hardAlpha"/>
<feOffset dx="1" dy="1"/>
<feGaussianBlur stdDeviation="1"/>
<feComposite in2="hardAlpha" operator="out"/>
<feColorMatrix type="matrix" values="0 0 0 0 1 0 0 0 0 1 0 0 0 0 1 0 0 0 0.5 0"/>
<feBlend mode="normal" in2="BackgroundImageFix" result="effect1_dropShadow_1265_3035"/>
<feBlend mode="normal" in="SourceGraphic" in2="effect1_dropShadow_1265_3035" result="shape"/>
</filter>
<linearGradient id="paint0_linear_1265_3035" x1="134.953" y1="33.5" x2="113.84" y2="80.2855" gradientUnits="userSpaceOnUse">
<stop stop-color="#9FC9FF"/>
<stop offset="1" stop-color="#6DA0E1"/>
</linearGradient>
<linearGradient id="paint1_linear_1265_3035" x1="134.953" y1="61.5" x2="113.84" y2="108.286" gradientUnits="userSpaceOnUse">
<stop stop-color="#9FC9FF"/>
<stop offset="1" stop-color="#6DA0E1"/>
</linearGradient>
<linearGradient id="paint2_linear_1265_3035" x1="82" y1="5" x2="67" y2="5.5" gradientUnits="userSpaceOnUse">
<stop stop-color="#9FC9FF"/>
<stop offset="1" stop-color="#6DA0E1"/>
</linearGradient>
</defs>
</svg>
