<svg width="153" height="63" viewBox="0 0 153 63" fill="none" xmlns="http://www.w3.org/2000/svg">
<path d="M0.666667 33C0.666667 33.7364 1.26362 34.3333 2 34.3333C2.73638 34.3333 3.33333 33.7364 3.33333 33C3.33333 32.2636 2.73638 31.6667 2 31.6667C1.26362 31.6667 0.666667 32.2636 0.666667 33ZM150.167 33C150.167 33.7364 150.764 34.3333 151.5 34.3333C152.236 34.3333 152.833 33.7364 152.833 33C152.833 32.2636 152.236 31.6667 151.5 31.6667C150.764 31.6667 150.167 32.2636 150.167 33ZM2 33V33.25H151.5V33V32.75H2V33Z" fill="url(#paint0_linear_1196_3071)"/>
<path d="M0.666667 61C0.666667 61.7364 1.26362 62.3333 2 62.3333C2.73638 62.3333 3.33333 61.7364 3.33333 61C3.33333 60.2636 2.73638 59.6667 2 59.6667C1.26362 59.6667 0.666667 60.2636 0.666667 61ZM150.167 61C150.167 61.7364 150.764 62.3333 151.5 62.3333C152.236 62.3333 152.833 61.7364 152.833 61C152.833 60.2636 152.236 59.6667 151.5 59.6667C150.764 59.6667 150.167 60.2636 150.167 61ZM2 61V61.25H151.5V61V60.75H2V61Z" fill="url(#paint1_linear_1196_3071)"/>
<g filter="url(#filter0_d_1196_3071)">
<path d="M83.991 1L78.5837 5.19695L74.7671 1.10654L70.9486 5.19695L66.001 1.31962L67.9793 9H81.9068L83.991 1ZM74.7558 4.67563L76.2537 6.05304L74.7558 8.03347L73.2579 6.05304L74.7558 4.67563ZM69.6001 6.01682C70.1143 6.01682 70.5192 6.42411 70.5192 6.94159C70.5192 7.45864 70.1143 7.86422 69.6001 7.86422C69.0858 7.86422 68.6807 7.45864 68.6807 6.94152C68.6807 6.42441 69.0859 6.01682 69.6001 6.01682ZM80.2368 6.01682C80.7509 6.01682 81.1558 6.42411 81.1558 6.94159C81.1558 7.45864 80.751 7.86422 80.2367 7.86422C79.7225 7.86422 79.3174 7.45864 79.3174 6.94152C79.3174 6.42441 79.7225 6.01682 80.2368 6.01682Z" fill="url(#paint2_linear_1196_3071)"/>
</g>
<g filter="url(#filter1_d_1196_3071)">
<path d="M79.8102 10C78.0262 10 76.447 10.9006 75.5036 12.2705C75.2984 12.5245 75.1129 12.7939 74.9487 13.0762C72.1535 7.82816 65.1784 9.78379 65.0043 15.3303C64.8187 21.2416 72.5548 22.7388 74.9488 28.6402C76.747 23.9582 81.8593 21.8237 83.9831 18.3662C84.6435 17.4912 85.0361 16.4032 85.0361 15.226C85.0361 14.4999 84.8839 13.7819 84.5892 13.1184C84.5851 13.1072 84.5807 13.0966 84.5763 13.0855C84.5753 13.083 84.5739 13.0806 84.5728 13.0782C84.0306 11.6627 82.9192 10.7311 81.6101 10.3206L81.6046 10.3188C81.0299 10.1077 80.4225 9.99972 79.8102 10ZM79.8102 11.0951C82.098 11.0951 83.9411 12.9381 83.9411 15.226C83.9411 16.67 83.2069 17.9376 82.0898 18.6756C82.691 17.5008 82.594 15.8066 81.7163 14.2865C80.7019 12.5296 78.9622 11.5598 77.4939 11.8018C78.1538 11.3554 78.9504 11.0951 79.8102 11.0951Z" fill="#F476E5"/>
</g>
<path d="M62.657 10C62.9059 10 63.3943 10.0724 63.7527 10.1719C64.111 10.2713 64.5091 10.425 64.8972 10.7051L64.5788 11.2744C64.4096 11.5908 64.1403 12.2241 63.991 12.667C63.7522 13.3898 63.7126 13.6342 63.7126 14.791C63.7027 15.8937 63.7422 16.2193 63.9314 16.8701C64.0608 17.295 64.3393 18.0271 64.5583 18.4971C64.7773 18.967 65.1561 19.6625 65.405 20.0332C65.644 20.4038 65.8329 20.7117 65.823 20.7207C65.8054 20.7283 65.6645 20.7471 65.4861 20.7744C65.5309 20.7713 65.5743 20.7677 65.614 20.7656C65.8927 20.7566 65.9926 20.82 66.2712 21.1904C66.4504 21.4254 66.8591 21.8682 67.1677 22.1846C67.5062 22.519 67.6849 22.7632 67.6052 22.7812C67.5449 22.7994 66.9283 22.8626 66.2419 22.9258C65.5252 22.9891 64.5193 23.0164 63.8523 22.9893C63.2251 22.9531 62.3689 22.8902 61.9607 22.8359C61.5525 22.7817 61.1438 22.7005 61.0642 22.6553C60.9847 22.619 60.9455 22.5283 60.9753 22.4561C61.006 22.3924 61.3636 22.1664 61.7712 21.9678C62.4582 21.6152 62.5778 21.5879 63.5535 21.5156C64.3599 21.4614 64.6389 21.4078 64.7683 21.2812C64.8677 21.191 64.9372 21.0646 64.9275 20.9922C64.9076 20.9199 64.987 20.8385 65.0964 20.8203C65.1123 20.8164 65.1313 20.8131 65.1521 20.8096C65.0071 20.8144 64.947 20.7936 64.947 20.7295C64.9468 20.6752 64.8675 20.5492 64.7683 20.459C64.619 20.3144 64.3994 20.2956 62.9558 20.3047C61.8806 20.3047 60.9842 20.2596 60.3669 20.1602C59.8492 20.0788 59.1026 19.9068 58.7244 19.7803C58.3462 19.6628 57.8487 19.4554 57.6296 19.3379C57.2812 19.1481 57.2512 19.1026 57.3806 18.9941C57.4602 18.9309 58.177 18.6418 58.9734 18.3525C59.7698 18.0724 60.5167 17.7469 60.6462 17.6475C60.8154 17.5029 60.8653 17.3762 60.8455 17.1504C60.8255 16.9515 60.7254 16.7794 60.5662 16.6709C60.3374 16.5084 60.2476 16.4995 59.3523 16.5898C58.8147 16.6441 57.7488 16.6895 56.9822 16.6895C56.146 16.6894 55.2999 16.635 54.8718 16.5537C54.4737 16.4814 53.9659 16.3548 53.7468 16.2734C53.5278 16.1921 53.2493 16.056 53.1199 15.9746C52.8909 15.83 52.9004 15.8211 53.9656 15.333C54.553 15.0528 55.3298 14.6554 55.6882 14.4385C56.0466 14.2215 56.7334 13.7512 57.2312 13.3896C57.729 13.0281 58.6849 12.2601 59.3718 11.6816C60.0588 11.0941 60.7954 10.533 61.0144 10.4336C61.2334 10.3251 61.5922 10.1902 61.8113 10.127C62.0302 10.0637 62.4081 10.0091 62.657 10ZM88.4431 10.0361C88.9208 10.0542 89.2594 10.1352 89.7371 10.334C90.2149 10.5419 90.7129 10.8947 91.6287 11.6719C92.3155 12.2594 93.2814 13.028 93.7693 13.3896C94.257 13.7512 94.9538 14.2215 95.3122 14.4385C95.6706 14.6554 96.4475 15.0528 97.0349 15.333C98.0995 15.8208 98.1101 15.8302 97.8816 15.9746C97.7522 16.056 97.4727 16.1921 97.2537 16.2734C97.0344 16.3548 96.5267 16.4814 96.1287 16.5537C95.7004 16.635 94.8544 16.6895 94.0183 16.6895C93.2517 16.6895 92.1765 16.6346 90.6433 16.4629L90.3845 16.6895C90.2253 16.8341 90.1257 17.0148 90.1257 17.1865C90.1258 17.3491 90.215 17.53 90.3542 17.6475C90.4837 17.7559 91.2306 18.0723 92.0271 18.3525C92.8236 18.6418 93.5308 18.9128 93.5906 18.958C93.6601 19.0032 93.6995 19.0757 93.6697 19.1299C93.6392 19.1843 93.3609 19.338 93.0427 19.4824C92.7341 19.618 92.2461 19.7985 91.9773 19.8799C91.6985 19.9612 91.0715 20.0876 90.5837 20.1689C90.0162 20.2593 89.0702 20.3047 86.3523 20.3047L86.1726 20.5762C86.0571 20.7531 86.0046 20.8099 85.8435 20.8076C85.963 20.8384 86.0531 20.9139 86.0535 20.9824C86.0535 21.0547 86.1328 21.1909 86.2224 21.2812C86.3618 21.4078 86.6407 21.4614 87.447 21.5156C88.4227 21.5879 88.5423 21.6152 89.2292 21.9678C89.6369 22.1664 89.9945 22.3924 90.0251 22.4561C90.055 22.5283 90.0157 22.619 89.9363 22.6553C89.8566 22.7005 89.448 22.7817 89.0398 22.8359C88.6316 22.8902 87.7753 22.9531 87.1482 22.9893C86.4812 23.0164 85.4753 22.9891 84.7585 22.9258C84.0727 22.8626 83.4566 22.7994 83.3855 22.7812C83.3158 22.7632 83.4943 22.519 83.8328 22.1846C84.1414 21.8682 84.5499 21.4254 84.739 21.1904C84.9978 20.8561 85.1376 20.7568 85.3367 20.7568C85.3691 20.7568 85.4048 20.7601 85.4421 20.7617C85.2992 20.7426 85.1923 20.7274 85.1775 20.7207C85.1675 20.7117 85.3765 20.3681 85.6453 19.9434C85.9141 19.5185 86.293 18.8311 86.4822 18.4062C86.6812 17.9814 86.9397 17.2948 87.0691 16.8701C87.2582 16.2193 87.2978 15.9027 87.2878 14.791C87.2779 13.6432 87.2483 13.3808 87.0095 12.667C86.8602 12.2241 86.6016 11.6089 86.4324 11.3105C86.2731 11.0122 86.1632 10.7137 86.1931 10.6504C86.2238 10.5959 86.4326 10.4605 86.6511 10.3613C86.8701 10.2619 87.2185 10.1451 87.4275 10.0908H87.4177C87.6268 10.0456 88.0847 10.0181 88.4431 10.0361Z" fill="#F3F3FF"/>
<path d="M62.657 10V9.74983L62.6479 9.75017L62.657 10ZM63.7527 10.1719L63.8195 9.93098L63.8195 9.93097L63.7527 10.1719ZM64.8972 10.7051L65.1154 10.8271L65.2241 10.6327L65.0435 10.5024L64.8972 10.7051ZM64.5788 11.2744L64.3606 11.1524L64.3584 11.1565L64.5788 11.2744ZM63.991 12.667L63.7541 12.5871L63.7536 12.5886L63.991 12.667ZM63.7126 14.791L63.9626 14.7933V14.791H63.7126ZM63.9314 16.8701L63.6913 16.9399L63.6922 16.943L63.9314 16.8701ZM64.5583 18.4971L64.3317 18.6027L64.3317 18.6027L64.5583 18.4971ZM65.405 20.0332L65.6152 19.8977L65.6126 19.8938L65.405 20.0332ZM65.823 20.7207L65.9222 20.9502L65.9603 20.9337L65.991 20.9058L65.823 20.7207ZM65.4861 20.7744L65.4482 20.5273L65.5034 21.0238L65.4861 20.7744ZM65.614 20.7656L65.6059 20.5157L65.6007 20.516L65.614 20.7656ZM66.2712 21.1904L66.0714 21.3407L66.0724 21.342L66.2712 21.1904ZM67.1677 22.1846L66.9887 22.3592L66.992 22.3624L67.1677 22.1846ZM67.6052 22.7812L67.5499 22.5375L67.5415 22.5394L67.5333 22.5418L67.6052 22.7812ZM66.2419 22.9258L66.2639 23.1748L66.2649 23.1747L66.2419 22.9258ZM63.8523 22.9893L63.8379 23.2389L63.8421 23.2391L63.8523 22.9893ZM61.9607 22.8359L61.9278 23.0838L61.9278 23.0838L61.9607 22.8359ZM61.0642 22.6553L61.1876 22.4378L61.178 22.4324L61.1679 22.4278L61.0642 22.6553ZM60.9753 22.4561L60.7502 22.3474L60.747 22.3539L60.7443 22.3606L60.9753 22.4561ZM61.7712 21.9678L61.8808 22.1926L61.8854 22.1902L61.7712 21.9678ZM63.5535 21.5156L63.5367 21.2662L63.535 21.2663L63.5535 21.5156ZM64.7683 21.2812L64.6001 21.096L64.5935 21.1025L64.7683 21.2812ZM64.9275 20.9922L65.1753 20.9591L65.173 20.9422L65.1685 20.9258L64.9275 20.9922ZM65.0964 20.8203L65.1374 21.0669L65.147 21.0653L65.1565 21.063L65.0964 20.8203ZM65.1521 20.8096L65.1943 21.056L65.1438 20.5597L65.1521 20.8096ZM64.947 20.7295L65.197 20.7295L65.197 20.7287L64.947 20.7295ZM64.7683 20.459L64.5943 20.6387L64.6001 20.6439L64.7683 20.459ZM62.9558 20.3047L62.9558 20.5547L62.9574 20.5547L62.9558 20.3047ZM60.3669 20.1602L60.4067 19.9133L60.4058 19.9132L60.3669 20.1602ZM58.7244 19.7803L58.8037 19.5431L58.7985 19.5415L58.7244 19.7803ZM57.6296 19.3379L57.51 19.5574L57.5115 19.5582L57.6296 19.3379ZM57.3806 18.9941L57.225 18.7983L57.22 18.8025L57.3806 18.9941ZM58.9734 18.3525L58.8904 18.1167L58.888 18.1176L58.9734 18.3525ZM60.6462 17.6475L60.7987 17.846L60.8086 17.8375L60.6462 17.6475ZM60.8455 17.1504L61.0945 17.1285L61.0942 17.1255L60.8455 17.1504ZM60.5662 16.6709L60.4213 16.8748L60.4254 16.8775L60.5662 16.6709ZM59.3523 16.5898L59.3272 16.3411L59.3272 16.3411L59.3523 16.5898ZM56.9822 16.6895L56.9822 16.9395H56.9822V16.6895ZM54.8718 16.5537L54.9185 16.3081L54.9165 16.3077L54.8718 16.5537ZM53.7468 16.2734L53.6598 16.5078L53.6598 16.5078L53.7468 16.2734ZM53.1199 15.9746L52.9864 16.186L52.9868 16.1863L53.1199 15.9746ZM53.9656 15.333L54.0697 15.5603L54.0732 15.5586L53.9656 15.333ZM55.6882 14.4385L55.8177 14.6523L55.8177 14.6523L55.6882 14.4385ZM57.2312 13.3896L57.3781 13.5919L57.3781 13.5919L57.2312 13.3896ZM59.3718 11.6816L59.5329 11.8729L59.5343 11.8716L59.3718 11.6816ZM61.0144 10.4336L61.1178 10.6614L61.1253 10.6576L61.0144 10.4336ZM61.8113 10.127L61.7419 9.88677L61.7419 9.88677L61.8113 10.127ZM88.4431 10.0361L88.4305 10.2858L88.4337 10.286L88.4431 10.0361ZM89.7371 10.334L89.8368 10.1047L89.8331 10.1032L89.7371 10.334ZM91.6287 11.6719L91.7912 11.4819L91.7904 11.4813L91.6287 11.6719ZM93.7693 13.3896L93.6204 13.5905L93.6204 13.5905L93.7693 13.3896ZM95.3122 14.4385L95.1828 14.6523L95.1828 14.6523L95.3122 14.4385ZM97.0349 15.333L96.9272 15.5587L96.9308 15.5603L97.0349 15.333ZM97.8816 15.9746L98.0146 16.1863L98.0151 16.186L97.8816 15.9746ZM97.2537 16.2734L97.3406 16.5078L97.3407 16.5078L97.2537 16.2734ZM96.1287 16.5537L96.084 16.3077L96.082 16.3081L96.1287 16.5537ZM94.0183 16.6895L94.0183 16.9395H94.0183V16.6895ZM90.6433 16.4629L90.6711 16.2144L90.5616 16.2022L90.4786 16.2748L90.6433 16.4629ZM90.3845 16.6895L90.2198 16.5013L90.2164 16.5044L90.3845 16.6895ZM90.1257 17.1865H89.8757L89.8757 17.1867L90.1257 17.1865ZM90.3542 17.6475L90.1931 17.8386L90.1937 17.8391L90.3542 17.6475ZM92.0271 18.3525L92.1124 18.1175L92.1101 18.1167L92.0271 18.3525ZM93.5906 18.958L93.4397 19.1574L93.4468 19.1627L93.4543 19.1676L93.5906 18.958ZM93.6697 19.1299L93.8878 19.252L93.8887 19.2505L93.6697 19.1299ZM93.0427 19.4824L93.1433 19.7113L93.1461 19.7101L93.0427 19.4824ZM91.9773 19.8799L92.0473 20.1199L92.0497 20.1192L91.9773 19.8799ZM90.5837 20.1689L90.6231 20.4158L90.6249 20.4155L90.5837 20.1689ZM86.3523 20.3047L86.3523 20.0547L86.218 20.0547L86.1438 20.1667L86.3523 20.3047ZM86.1726 20.5762L85.9641 20.4382L85.9633 20.4395L86.1726 20.5762ZM85.8435 20.8076L85.847 20.5576L85.7812 21.0497L85.8435 20.8076ZM86.0535 20.9824H86.3035L86.3035 20.9813L86.0535 20.9824ZM86.2224 21.2812L86.0446 21.4575L86.0544 21.4664L86.2224 21.2812ZM87.447 21.5156L87.4655 21.2663L87.4638 21.2662L87.447 21.5156ZM89.2292 21.9678L89.1151 22.1902L89.1197 22.1925L89.2292 21.9678ZM90.0251 22.4561L90.2562 22.3606L90.2535 22.354L90.2503 22.3475L90.0251 22.4561ZM89.9363 22.6553L89.8326 22.4278L89.8225 22.4324L89.8129 22.4378L89.9363 22.6553ZM89.0398 22.8359L89.0727 23.0838L89.0727 23.0838L89.0398 22.8359ZM87.1482 22.9893L87.1583 23.2391L87.1626 23.2388L87.1482 22.9893ZM84.7585 22.9258L84.7356 23.1747L84.7366 23.1748L84.7585 22.9258ZM83.3855 22.7812L83.3227 23.0232L83.3236 23.0235L83.3855 22.7812ZM83.8328 22.1846L84.0085 22.3624L84.0117 22.3591L83.8328 22.1846ZM84.739 21.1904L84.9338 21.3472L84.9367 21.3434L84.739 21.1904ZM85.3367 20.7568L85.3367 20.5068H85.3367V20.7568ZM85.4421 20.7617L85.4313 21.0115L85.4752 20.5139L85.4421 20.7617ZM85.1775 20.7207L85.0094 20.9058L85.0386 20.9323L85.0745 20.9485L85.1775 20.7207ZM85.6453 19.9434L85.434 19.8097L85.434 19.8097L85.6453 19.9434ZM86.4822 18.4062L86.2557 18.3002L86.2538 18.3046L86.4822 18.4062ZM87.0691 16.8701L87.3083 16.943L87.3091 16.9399L87.0691 16.8701ZM87.2878 14.791L87.0378 14.7932L87.0378 14.7933L87.2878 14.791ZM87.0095 12.667L87.2466 12.5877L87.2464 12.5871L87.0095 12.667ZM86.4324 11.3105L86.2118 11.4283L86.2149 11.4339L86.4324 11.3105ZM86.1931 10.6504L85.9752 10.5278L85.9708 10.5356L85.967 10.5437L86.1931 10.6504ZM86.6511 10.3613L86.5478 10.1337L86.5478 10.1337L86.6511 10.3613ZM87.4275 10.0908L87.4903 10.3328L87.4275 9.84082V10.0908ZM87.4177 10.0908L87.3649 9.84646L87.4177 10.3408V10.0908ZM62.657 10V10.25C62.8777 10.25 63.3431 10.3177 63.6858 10.4128L63.7527 10.1719L63.8195 9.93097C63.4454 9.8272 62.934 9.75 62.657 9.75V10ZM63.7527 10.1719L63.6858 10.4128C64.0258 10.5071 64.3941 10.6503 64.7509 10.9078L64.8972 10.7051L65.0435 10.5024C64.624 10.1996 64.1962 10.0355 63.8195 9.93098L63.7527 10.1719ZM64.8972 10.7051L64.679 10.5831L64.3606 11.1524L64.5788 11.2744L64.7971 11.3964L65.1154 10.8271L64.8972 10.7051ZM64.5788 11.2744L64.3584 11.1565C64.1814 11.4873 63.9069 12.1337 63.7541 12.5871L63.991 12.667L64.2279 12.7469C64.3737 12.3144 64.6378 11.6943 64.7993 11.3923L64.5788 11.2744ZM63.991 12.667L63.7536 12.5886C63.6329 12.9538 63.5574 13.2134 63.5145 13.533C63.4723 13.8476 63.4626 14.2133 63.4626 14.791H63.7126H63.9626C63.9626 14.212 63.9728 13.877 64.01 13.5995C64.0466 13.327 64.1102 13.1029 64.2283 12.7454L63.991 12.667ZM63.7126 14.791L63.4626 14.7888C63.4526 15.9047 63.4928 16.257 63.6913 16.9399L63.9314 16.8701L64.1715 16.8003C63.9916 16.1816 63.9528 15.8827 63.9626 14.7933L63.7126 14.791ZM63.9314 16.8701L63.6922 16.943C63.8251 17.3792 64.1079 18.1222 64.3317 18.6027L64.5583 18.4971L64.7849 18.3915C64.5708 17.9319 64.2965 17.2107 64.1705 16.7973L63.9314 16.8701ZM64.5583 18.4971L64.3317 18.6027C64.5544 19.0806 64.9394 19.7882 65.1975 20.1726L65.405 20.0332L65.6126 19.8938C65.3729 19.5368 65.0002 18.8534 64.7849 18.3915L64.5583 18.4971ZM65.405 20.0332L65.1949 20.1687C65.3138 20.353 65.4195 20.5207 65.4939 20.6427C65.5313 20.7041 65.5595 20.7518 65.5772 20.7834C65.5815 20.7912 65.5849 20.7974 65.5874 20.8022C65.5886 20.8045 65.5896 20.8064 65.5903 20.8077C65.591 20.8091 65.5913 20.8098 65.5912 20.8097C65.5912 20.8097 65.5911 20.8093 65.5908 20.8088C65.5906 20.8082 65.5902 20.8073 65.5896 20.806C65.5888 20.8039 65.5866 20.7985 65.5841 20.7907C65.5825 20.7855 65.5765 20.7663 65.5742 20.7401C65.5731 20.727 65.5719 20.7013 65.5785 20.6696C65.5849 20.6382 65.603 20.5828 65.6549 20.5356L65.823 20.7207L65.991 20.9058C66.0433 20.8583 66.0616 20.8025 66.0682 20.7705C66.0748 20.7383 66.0736 20.7118 66.0724 20.6978C66.0701 20.6699 66.0635 20.6484 66.061 20.6404C66.0551 20.6215 66.0478 20.6057 66.0441 20.5978C66.0356 20.5795 66.0246 20.559 66.0138 20.5397C65.9914 20.4996 65.9592 20.4454 65.9208 20.3824C65.8434 20.2555 65.7352 20.084 65.6151 19.8977L65.405 20.0332ZM65.823 20.7207L65.7238 20.4912C65.7466 20.4814 65.7649 20.4782 65.757 20.4799C65.7561 20.4801 65.7524 20.4809 65.7446 20.4823C65.7293 20.485 65.707 20.4885 65.6773 20.493C65.6228 20.5013 65.5349 20.514 65.4482 20.5273L65.4861 20.7744L65.5239 21.0215C65.6157 21.0075 65.6874 20.9972 65.7523 20.9873C65.7824 20.9828 65.8098 20.9785 65.8314 20.9747C65.8421 20.9728 65.8537 20.9706 65.8645 20.9682C65.8685 20.9674 65.895 20.9619 65.9222 20.9502L65.823 20.7207ZM65.4861 20.7744L65.5034 21.0238C65.5526 21.0204 65.5902 21.0173 65.6273 21.0153L65.614 20.7656L65.6007 20.516C65.5584 20.5182 65.5091 20.5222 65.4687 20.525L65.4861 20.7744ZM65.614 20.7656L65.6221 21.0155C65.7399 21.0117 65.7746 21.0248 65.8072 21.0458C65.8592 21.0794 65.9296 21.1522 66.0714 21.3407L66.2712 21.1904L66.471 21.0401C66.3342 20.8583 66.2154 20.7141 66.0781 20.6256C65.9215 20.5246 65.7668 20.5105 65.6059 20.5158L65.614 20.7656ZM66.2712 21.1904L66.0724 21.342C66.2618 21.5904 66.6802 22.0428 66.9888 22.3591L67.1677 22.1846L67.3467 22.01C67.038 21.6936 66.639 21.2605 66.47 21.0388L66.2712 21.1904ZM67.1677 22.1846L66.992 22.3624C67.1573 22.5257 67.2759 22.6597 67.3416 22.7493C67.3774 22.7982 67.3843 22.8164 67.3824 22.8108C67.3812 22.8074 67.3779 22.7976 67.3758 22.7829C67.3739 22.7687 67.3718 22.7418 67.3795 22.7083C67.3878 22.6722 67.4071 22.6303 67.4441 22.5948C67.4802 22.5602 67.5201 22.5442 67.5499 22.5375L67.6052 22.7812L67.6606 23.025C67.7003 23.016 67.7481 22.9961 67.7902 22.9556C67.8331 22.9145 67.8565 22.8652 67.8669 22.82C67.885 22.7409 67.8642 22.6735 67.8538 22.6441C67.8301 22.5771 67.7861 22.51 67.7449 22.4538C67.6566 22.3332 67.5167 22.1779 67.3434 22.0067L67.1677 22.1846ZM67.6052 22.7812L67.5333 22.5418C67.5461 22.538 67.5485 22.5386 67.5205 22.5428C67.4996 22.5459 67.4704 22.5498 67.4328 22.5544C67.3579 22.5636 67.2554 22.575 67.1323 22.588C66.8862 22.6138 66.5616 22.6453 66.219 22.6768L66.2419 22.9258L66.2649 23.1747C66.6086 23.1431 66.9355 23.1113 67.1844 23.0852C67.3087 23.0722 67.4146 23.0604 67.4938 23.0507C67.5332 23.0459 67.5674 23.0414 67.5945 23.0373C67.6144 23.0343 67.6492 23.0291 67.6771 23.0207L67.6052 22.7812ZM66.2419 22.9258L66.22 22.6767C65.5128 22.7392 64.5178 22.7661 63.8624 22.7395L63.8523 22.9893L63.8421 23.2391C64.5209 23.2666 65.5375 23.2389 66.2639 23.1748L66.2419 22.9258ZM63.8523 22.9893L63.8667 22.7397C63.2391 22.7035 62.3915 22.641 61.9936 22.5881L61.9607 22.8359L61.9278 23.0838C62.3463 23.1394 63.2112 23.2027 63.8379 23.2388L63.8523 22.9893ZM61.9607 22.8359L61.9936 22.5881C61.7943 22.5616 61.5955 22.5286 61.4384 22.4971C61.3596 22.4813 61.2937 22.4663 61.2445 22.4533C61.1852 22.4376 61.1753 22.4309 61.1876 22.4378L61.0642 22.6553L60.9408 22.8727C60.9929 22.9023 61.064 22.9227 61.1164 22.9366C61.179 22.9532 61.2557 22.9704 61.3401 22.9873C61.5092 23.0213 61.7189 23.056 61.9278 23.0838L61.9607 22.8359ZM61.0642 22.6553L61.1679 22.4278C61.1858 22.436 61.1996 22.4503 61.2075 22.4681C61.2152 22.4856 61.2209 22.5163 61.2064 22.5515L60.9753 22.4561L60.7443 22.3606C60.6561 22.5741 60.7759 22.7986 60.9605 22.8828L61.0642 22.6553ZM60.9753 22.4561L61.2005 22.5647C61.1827 22.6016 61.1612 22.618 61.1725 22.6074C61.177 22.6032 61.1873 22.5944 61.2056 22.5807C61.2415 22.5536 61.295 22.5176 61.3636 22.4751C61.5 22.3906 61.6839 22.2884 61.8807 22.1925L61.7712 21.9678L61.6617 21.743C61.451 21.8457 61.2522 21.9559 61.1003 22.05C61.0247 22.0968 60.9575 22.1416 60.9051 22.181C60.8791 22.2006 60.8533 22.2214 60.8307 22.2425C60.815 22.2572 60.7757 22.2946 60.7502 22.3474L60.9753 22.4561ZM61.7712 21.9678L61.8854 22.1902C62.2293 22.0137 62.4081 21.9312 62.6152 21.879C62.8279 21.8254 63.0789 21.8015 63.5719 21.7649L63.5535 21.5156L63.535 21.2663C63.0524 21.3021 62.7557 21.328 62.493 21.3942C62.2245 21.4619 62.0001 21.5693 61.6571 21.7454L61.7712 21.9678ZM63.5535 21.5156L63.5702 21.7651C63.9733 21.738 64.2585 21.7103 64.4621 21.671C64.6623 21.6324 64.8246 21.5759 64.9431 21.46L64.7683 21.2812L64.5935 21.1025C64.5826 21.1132 64.5407 21.1467 64.3674 21.1801C64.1975 21.2128 63.94 21.2391 63.5367 21.2662L63.5535 21.5156ZM64.7683 21.2812L64.9364 21.4663C65.0061 21.403 65.0657 21.3271 65.1078 21.2505C65.1441 21.1846 65.1909 21.0761 65.1753 20.9591L64.9275 20.9922L64.6797 21.0253C64.676 20.9978 64.6814 20.9828 64.6803 20.9864C64.6798 20.9881 64.6771 20.9961 64.6698 21.0095C64.6547 21.0368 64.6299 21.0693 64.6002 21.0962L64.7683 21.2812ZM64.9275 20.9922L65.1685 20.9258C65.1902 21.0046 65.1488 21.054 65.142 21.061C65.1325 21.0706 65.13 21.0682 65.1374 21.0669L65.0964 20.8203L65.0555 20.5737C64.9535 20.5906 64.8565 20.638 64.785 20.7109C64.716 20.7812 64.6449 20.9075 64.6865 21.0586L64.9275 20.9922ZM65.0964 20.8203L65.1565 21.063C65.1617 21.0617 65.1706 21.06 65.1943 21.056L65.1521 20.8096L65.1099 20.5632C65.092 20.5662 65.063 20.571 65.0363 20.5776L65.0964 20.8203ZM65.1521 20.8096L65.1438 20.5597C65.1132 20.5607 65.0931 20.5601 65.0806 20.5591C65.0669 20.5579 65.071 20.5567 65.0841 20.5617C65.0987 20.5673 65.1326 20.5837 65.161 20.6229C65.1907 20.6638 65.197 20.7052 65.197 20.7295H64.947H64.697C64.697 20.7859 64.7109 20.8539 64.7563 20.9165C64.8006 20.9775 64.8585 21.0108 64.9063 21.029C64.9904 21.061 65.0864 21.0619 65.1604 21.0594L65.1521 20.8096ZM64.947 20.7295L65.197 20.7287C65.1968 20.6643 65.1759 20.6091 65.1625 20.5779C65.1465 20.5409 65.126 20.5047 65.1043 20.4714C65.0612 20.4051 65.0029 20.3344 64.9365 20.274L64.7683 20.459L64.6001 20.6439C64.6329 20.6738 64.6639 20.7113 64.6853 20.7441C64.6959 20.7604 64.7014 20.7715 64.7035 20.7762C64.7044 20.7784 64.7035 20.7766 64.702 20.7712C64.7008 20.7667 64.6971 20.752 64.697 20.7303L64.947 20.7295ZM64.7683 20.459L64.9422 20.2794C64.8048 20.1463 64.641 20.0983 64.3686 20.0751C64.1007 20.0523 63.6719 20.0502 62.9542 20.0547L62.9558 20.3047L62.9574 20.5547C63.6833 20.5501 64.0861 20.5529 64.3262 20.5733C64.5618 20.5934 64.5824 20.627 64.5944 20.6386L64.7683 20.459ZM62.9558 20.3047L62.9558 20.0547C61.8841 20.0547 61.0037 20.0095 60.4067 19.9133L60.3669 20.1602L60.3272 20.407C60.9646 20.5097 61.8772 20.5547 62.9558 20.5547L62.9558 20.3047ZM60.3669 20.1602L60.4058 19.9132C59.8974 19.8333 59.165 19.6641 58.8037 19.5432L58.7244 19.7803L58.6451 20.0174C59.0401 20.1495 59.8011 20.3243 60.3281 20.4071L60.3669 20.1602ZM58.7244 19.7803L58.7985 19.5415C58.4325 19.4278 57.9502 19.2261 57.7478 19.1176L57.6296 19.3379L57.5115 19.5582C57.7472 19.6846 58.2599 19.8978 58.6502 20.019L58.7244 19.7803ZM57.6296 19.3379L57.7492 19.1184C57.6628 19.0713 57.6033 19.037 57.5626 19.0103C57.5426 18.9972 57.5307 18.9882 57.5243 18.9828C57.5172 18.9768 57.5215 18.9792 57.5291 18.9899C57.5375 19.0015 57.5529 19.0275 57.5583 19.0662C57.564 19.1072 57.5557 19.1429 57.5446 19.168C57.5395 19.1795 57.5343 19.1877 57.531 19.1926C57.5276 19.1974 57.5252 19.2 57.525 19.2003C57.5247 19.2006 57.5257 19.1994 57.5286 19.1967C57.5315 19.1941 57.5356 19.1905 57.5412 19.1857L57.3806 18.9941L57.22 18.8025C57.1873 18.83 57.1229 18.8853 57.0873 18.9658C57.0662 19.0134 57.0542 19.0713 57.063 19.1348C57.0715 19.1961 57.097 19.2452 57.1227 19.2812C57.1689 19.3456 57.2351 19.3935 57.2884 19.4284C57.3473 19.467 57.4222 19.5096 57.51 19.5574L57.6296 19.3379ZM57.3806 18.9941L57.5361 19.1899C57.5234 19.2 57.5214 19.1989 57.5519 19.1834C57.5757 19.1715 57.6093 19.1557 57.6529 19.1362C57.7398 19.0974 57.8587 19.0476 58.0017 18.99C58.2872 18.8749 58.6627 18.7313 59.0587 18.5875L58.9734 18.3525L58.888 18.1176C58.4877 18.263 58.1066 18.4086 57.8148 18.5262C57.6691 18.5849 57.544 18.6373 57.4492 18.6796C57.402 18.7006 57.3604 18.72 57.3266 18.7371C57.2996 18.7507 57.2577 18.7725 57.2251 18.7984L57.3806 18.9941ZM58.9734 18.3525L59.0564 18.5884C59.4596 18.4465 59.8504 18.2932 60.1578 18.1622C60.3114 18.0968 60.4458 18.0363 60.5514 17.9851C60.6488 17.9378 60.7428 17.8885 60.7985 17.8458L60.6462 17.6475L60.494 17.4492C60.4949 17.4485 60.492 17.4507 60.4832 17.4562C60.4749 17.4613 60.4637 17.4679 60.4491 17.4759C60.4198 17.4921 60.381 17.512 60.333 17.5353C60.2372 17.5818 60.1108 17.6388 59.9619 17.7022C59.6644 17.8289 59.2836 17.9784 58.8904 18.1167L58.9734 18.3525ZM60.6462 17.6475L60.8086 17.8375C60.9111 17.75 60.9975 17.6509 61.0489 17.5221C61.1 17.3941 61.1063 17.2625 61.0945 17.1285L60.8455 17.1504L60.5964 17.1723C60.6045 17.2641 60.5957 17.3087 60.5846 17.3367C60.5737 17.3639 60.5506 17.4004 60.4838 17.4574L60.6462 17.6475ZM60.8455 17.1504L61.0942 17.1255C61.0673 16.8564 60.93 16.6162 60.7069 16.4643L60.5662 16.6709L60.4254 16.8775C60.5209 16.9425 60.5838 17.0466 60.5967 17.1753L60.8455 17.1504ZM60.5662 16.6709L60.7109 16.4671C60.6497 16.4236 60.5823 16.379 60.5003 16.3455C60.4159 16.311 60.3281 16.2932 60.2264 16.2862C60.0373 16.2731 59.7665 16.2968 59.3272 16.3411L59.3523 16.5898L59.3774 16.8386C59.8334 16.7926 60.0551 16.7755 60.192 16.785C60.2533 16.7892 60.2868 16.7984 60.3114 16.8085C60.3386 16.8196 60.3682 16.8369 60.4214 16.8747L60.5662 16.6709ZM59.3523 16.5898L59.3272 16.3411C58.8004 16.3943 57.7433 16.4395 56.9822 16.4395V16.6895V16.9395C57.7542 16.9395 58.829 16.8939 59.3774 16.8386L59.3523 16.5898ZM56.9822 16.6895L56.9822 16.4395C56.1502 16.4394 55.323 16.385 54.9185 16.3081L54.8718 16.5537L54.8252 16.7993C55.2769 16.8851 56.1419 16.9394 56.9822 16.9395L56.9822 16.6895ZM54.8718 16.5537L54.9165 16.3077C54.5241 16.2365 54.0328 16.113 53.8338 16.0391L53.7468 16.2734L53.6598 16.5078C53.899 16.5966 54.4233 16.7263 54.8272 16.7997L54.8718 16.5537ZM53.7468 16.2734L53.8339 16.0391C53.6275 15.9624 53.365 15.8334 53.2529 15.7629L53.1199 15.9746L52.9868 16.1863C53.1336 16.2785 53.4282 16.4218 53.6598 16.5078L53.7468 16.2734ZM53.1199 15.9746L53.2534 15.7632C53.223 15.744 53.208 15.7341 53.1991 15.7273C53.1864 15.7175 53.2094 15.7313 53.2284 15.7685C53.2575 15.8256 53.2566 15.8946 53.2295 15.9487C53.2118 15.9841 53.1918 15.9945 53.2088 15.9816C53.2397 15.958 53.312 15.9164 53.4614 15.8435C53.6052 15.7734 53.8025 15.6827 54.0697 15.5603L53.9656 15.333L53.8614 15.1057C53.5961 15.2273 53.3927 15.3208 53.2423 15.3941C53.0975 15.4647 52.982 15.5259 52.906 15.5836C52.8695 15.6114 52.8163 15.6571 52.7825 15.7247C52.7391 15.8112 52.7391 15.9095 52.7828 15.9954C52.8164 16.0614 52.868 16.1035 52.8945 16.1238C52.9247 16.147 52.9595 16.169 52.9864 16.186L53.1199 15.9746ZM53.9656 15.333L54.0732 15.5586C54.6618 15.2779 55.448 14.8761 55.8177 14.6523L55.6882 14.4385L55.5588 14.2246C55.2116 14.4348 54.4441 14.8277 53.8579 15.1074L53.9656 15.333ZM55.6882 14.4385L55.8177 14.6523C56.185 14.43 56.8783 13.955 57.3781 13.5919L57.2312 13.3896L57.0843 13.1874C56.5885 13.5475 55.9083 14.013 55.5588 14.2246L55.6882 14.4385ZM57.2312 13.3896L57.3781 13.5919C57.8831 13.2251 58.8444 12.4526 59.5329 11.8729L59.3718 11.6816L59.2108 11.4904C58.5254 12.0676 57.5748 12.8311 57.0843 13.1874L57.2312 13.3896ZM59.3718 11.6816L59.5343 11.8716C59.8745 11.5807 60.2267 11.2966 60.5199 11.0736C60.6666 10.962 60.7972 10.8668 60.9032 10.7942C61.0139 10.7183 61.085 10.6761 61.1177 10.6612L61.0144 10.4336L60.9111 10.206C60.8343 10.2408 60.7311 10.306 60.6207 10.3817C60.5055 10.4605 60.3679 10.561 60.2173 10.6756C59.9157 10.9049 59.5561 11.1951 59.2093 11.4917L59.3718 11.6816ZM61.0144 10.4336L61.1253 10.6576C61.3294 10.5566 61.6741 10.4268 61.8807 10.3671L61.8113 10.127L61.7419 9.88677C61.5104 9.95365 61.1374 10.0937 60.9034 10.2096L61.0144 10.4336ZM61.8113 10.127L61.8806 10.3671C62.0765 10.3106 62.4336 10.2583 62.6661 10.2498L62.657 10L62.6479 9.75017C62.3826 9.75983 61.984 9.81685 61.7419 9.88677L61.8113 10.127ZM88.4431 10.0361L88.4337 10.286C88.8777 10.3028 89.187 10.3759 89.641 10.5648L89.7371 10.334L89.8331 10.1032C89.3318 9.89459 88.964 9.80567 88.4526 9.78631L88.4431 10.0361ZM89.7371 10.334L89.6373 10.5632C90.0782 10.755 90.5518 11.0858 91.4669 11.8625L91.6287 11.6719L91.7904 11.4813C90.8741 10.7036 90.3516 10.3287 89.8368 10.1047L89.7371 10.334ZM91.6287 11.6719L91.4662 11.8619C92.1569 12.4526 93.1273 13.225 93.6204 13.5905L93.7693 13.3896L93.9181 13.1888C93.4355 12.8311 92.4742 12.0661 91.7912 11.4819L91.6287 11.6719ZM93.7693 13.3896L93.6204 13.5905C94.1131 13.9556 94.8163 14.4305 95.1828 14.6523L95.3122 14.4385L95.4417 14.2246C95.0912 14.0125 94.401 13.5467 93.9181 13.1888L93.7693 13.3896ZM95.3122 14.4385L95.1828 14.6523C95.5524 14.8761 96.3387 15.2779 96.9273 15.5586L97.0349 15.333L97.1425 15.1074C96.5564 14.8277 95.7889 14.4347 95.4417 14.2246L95.3122 14.4385ZM97.0349 15.333L96.9308 15.5603C97.1979 15.6827 97.3951 15.7733 97.5389 15.8435C97.6883 15.9163 97.7608 15.958 97.792 15.9817C97.809 15.9946 97.7893 15.9844 97.7717 15.9496C97.7447 15.8961 97.7431 15.8272 97.7721 15.7696C97.7911 15.732 97.8144 15.7179 97.8019 15.7276C97.7932 15.7343 97.7783 15.7441 97.7481 15.7632L97.8816 15.9746L98.0151 16.186C98.042 16.169 98.0768 16.147 98.1071 16.1236C98.1336 16.1032 98.1852 16.0609 98.2187 15.9945C98.2622 15.9081 98.2613 15.8098 98.2179 15.724C98.184 15.6568 98.1309 15.6113 98.0944 15.5835C98.0184 15.5258 97.9028 15.4646 97.758 15.394C97.6076 15.3207 97.4043 15.2273 97.139 15.1057L97.0349 15.333ZM97.8816 15.9746L97.7485 15.763C97.6367 15.8333 97.3734 15.9623 97.1666 16.0391L97.2537 16.2734L97.3407 16.5078C97.572 16.4219 97.8676 16.2787 98.0146 16.1863L97.8816 15.9746ZM97.2537 16.2734L97.1667 16.0391C96.9675 16.113 96.4763 16.2365 96.084 16.3077L96.1287 16.5537L96.1733 16.7997C96.5771 16.7264 97.1014 16.5966 97.3406 16.5078L97.2537 16.2734ZM96.1287 16.5537L96.082 16.3081C95.6774 16.3849 94.8502 16.4395 94.0183 16.4395V16.6895V16.9395C94.8586 16.9395 95.7235 16.8851 96.1753 16.7993L96.1287 16.5537ZM94.0183 16.6895L94.0183 16.4395C93.2633 16.4395 92.1977 16.3854 90.6711 16.2144L90.6433 16.4629L90.6155 16.7113C92.1553 16.8838 93.2401 16.9395 94.0183 16.9395L94.0183 16.6895ZM90.6433 16.4629L90.4786 16.2748L90.2198 16.5014L90.3845 16.6895L90.5492 16.8776L90.808 16.651L90.6433 16.4629ZM90.3845 16.6895L90.2164 16.5044C90.0253 16.678 89.8757 16.921 89.8757 17.1865H90.1257H90.3757C90.3757 17.1087 90.4253 16.9901 90.5526 16.8745L90.3845 16.6895ZM90.1257 17.1865L89.8757 17.1867C89.8759 17.4316 90.0045 17.6795 90.1931 17.8386L90.3542 17.6475L90.5154 17.4564C90.4255 17.3805 90.3758 17.2667 90.3757 17.1864L90.1257 17.1865ZM90.3542 17.6475L90.1937 17.8391C90.2529 17.8888 90.3514 17.9411 90.4483 17.9885C90.5546 18.0406 90.6896 18.1011 90.8433 18.1659C91.151 18.2958 91.5417 18.4468 91.9441 18.5884L92.0271 18.3525L92.1101 18.1167C91.716 17.9781 91.335 17.8307 91.0377 17.7053C90.8889 17.6425 90.7632 17.586 90.6682 17.5395C90.6206 17.5162 90.5827 17.4963 90.5544 17.4802C90.5232 17.4624 90.5133 17.4545 90.5148 17.4559L90.3542 17.6475ZM92.0271 18.3525L91.9418 18.5875C92.339 18.7318 92.7133 18.8712 92.9951 18.98C93.1362 19.0345 93.2528 19.0808 93.337 19.1158C93.3793 19.1334 93.4116 19.1475 93.434 19.1578C93.4665 19.1728 93.4578 19.1711 93.4397 19.1574L93.5906 18.958L93.7414 18.7586C93.7084 18.7337 93.6645 18.7135 93.6438 18.7039C93.613 18.6897 93.574 18.6729 93.5292 18.6542C93.4391 18.6167 93.3179 18.5687 93.1751 18.5136C92.8892 18.4032 92.5117 18.2625 92.1124 18.1176L92.0271 18.3525ZM93.5906 18.958L93.4543 19.1676C93.4587 19.1705 93.4512 19.1677 93.4424 19.1497C93.4331 19.1304 93.4155 19.0732 93.4507 19.0093L93.6697 19.1299L93.8887 19.2505C93.9537 19.1324 93.9313 19.0119 93.8923 18.9315C93.854 18.8524 93.792 18.7908 93.7268 18.7484L93.5906 18.958ZM93.6697 19.1299L93.4515 19.0078C93.4697 18.9753 93.4894 18.9605 93.483 18.9661C93.4816 18.9673 93.4753 18.9724 93.4619 18.9816C93.4355 18.9998 93.3953 19.0244 93.3421 19.0542C93.2365 19.1132 93.0938 19.1847 92.9394 19.2548L93.0427 19.4824L93.1461 19.7101C93.3098 19.6357 93.4654 19.5581 93.5861 19.4906C93.646 19.4571 93.701 19.424 93.7453 19.3936C93.7673 19.3785 93.7902 19.3615 93.8111 19.3434C93.8269 19.3296 93.862 19.2981 93.8878 19.252L93.6697 19.1299ZM93.0427 19.4824L92.9422 19.2535C92.642 19.3854 92.1634 19.5624 91.9049 19.6406L91.9773 19.8799L92.0497 20.1192C92.3288 20.0347 92.8262 19.8506 93.1433 19.7113L93.0427 19.4824ZM91.9773 19.8799L91.9073 19.6399C91.6437 19.7168 91.0291 19.8412 90.5426 19.9224L90.5837 20.1689L90.6249 20.4155C91.1139 20.334 91.7534 20.2057 92.0473 20.1199L91.9773 19.8799ZM90.5837 20.1689L90.5444 19.9221C90.0004 20.0087 89.0759 20.0547 86.3523 20.0547L86.3523 20.3047L86.3523 20.5547C89.0646 20.5547 90.0321 20.51 90.6231 20.4158L90.5837 20.1689ZM86.3523 20.3047L86.1438 20.1667L85.9641 20.4382L86.1726 20.5762L86.3811 20.7142L86.5608 20.4427L86.3523 20.3047ZM86.1726 20.5762L85.9633 20.4395C85.9349 20.483 85.9149 20.5119 85.8984 20.533C85.8823 20.5536 85.875 20.5593 85.8745 20.5596C85.8745 20.5596 85.8748 20.5593 85.8756 20.5589C85.8764 20.5584 85.8773 20.5579 85.8784 20.5573C85.8795 20.5568 85.8805 20.5564 85.8814 20.556C85.8818 20.5559 85.8822 20.5558 85.8824 20.5557C85.8825 20.5557 85.8826 20.5556 85.8827 20.5556C85.8827 20.5556 85.8828 20.5556 85.8828 20.5556C85.8825 20.5557 85.8734 20.558 85.847 20.5576L85.8435 20.8076L85.84 21.0576C85.954 21.0592 86.0689 21.0394 86.1758 20.9586C86.264 20.892 86.3281 20.7953 86.3819 20.7128L86.1726 20.5762ZM85.8435 20.8076L85.7812 21.0497C85.8101 21.0572 85.8278 21.0685 85.833 21.0728C85.8354 21.0748 85.8302 21.0712 85.8232 21.0595C85.8161 21.0478 85.8036 21.0216 85.8035 20.9836L86.0535 20.9824L86.3035 20.9813C86.3028 20.8399 86.2155 20.7408 86.1533 20.6889C86.0836 20.6307 85.9964 20.5888 85.9058 20.5655L85.8435 20.8076ZM86.0535 20.9824H85.8035C85.8035 21.0875 85.8524 21.1879 85.8872 21.249C85.9284 21.3211 85.9836 21.3955 86.0449 21.4572L86.2224 21.2812L86.4 21.1053C86.3716 21.0766 86.3424 21.0377 86.3214 21.0011C86.3112 20.9831 86.3051 20.9696 86.3022 20.9616C86.2983 20.9507 86.3035 20.9596 86.3035 20.9824H86.0535ZM86.2224 21.2812L86.0544 21.4664C86.1753 21.5761 86.3346 21.6322 86.5376 21.6711C86.7421 21.7103 87.0271 21.7379 87.4302 21.7651L87.447 21.5156L87.4638 21.2662C87.0606 21.2391 86.803 21.2128 86.6317 21.18C86.4587 21.1469 86.4089 21.1129 86.3904 21.0961L86.2224 21.2812ZM87.447 21.5156L87.4285 21.7649C87.9216 21.8015 88.1725 21.8254 88.3853 21.879C88.5923 21.9312 88.7712 22.0137 89.1151 22.1902L89.2292 21.9678L89.3434 21.7454C89.0004 21.5693 88.7759 21.4619 88.5075 21.3942C88.2448 21.328 87.9481 21.3021 87.4655 21.2663L87.447 21.5156ZM89.2292 21.9678L89.1197 22.1925C89.3166 22.2884 89.5005 22.3906 89.6369 22.4751C89.7055 22.5176 89.7589 22.5536 89.7949 22.5807C89.8132 22.5944 89.8235 22.6032 89.8279 22.6074C89.8392 22.618 89.8178 22.6016 89.8 22.5647L90.0251 22.4561L90.2503 22.3475C90.2248 22.2946 90.1855 22.2572 90.1698 22.2425C90.1472 22.2214 90.1214 22.2006 90.0954 22.181C90.043 22.1416 89.9758 22.0968 89.9002 22.05C89.7483 21.9559 89.5495 21.8457 89.3387 21.743L89.2292 21.9678ZM90.0251 22.4561L89.7941 22.5515C89.7795 22.5163 89.7853 22.4856 89.793 22.4681C89.8009 22.4503 89.8147 22.436 89.8326 22.4278L89.9363 22.6553L90.04 22.8827C90.2246 22.7986 90.3444 22.5741 90.2562 22.3606L90.0251 22.4561ZM89.9363 22.6553L89.8129 22.4378C89.8251 22.4309 89.8153 22.4376 89.7559 22.4533C89.7067 22.4663 89.6408 22.4813 89.562 22.4971C89.4049 22.5286 89.2062 22.5616 89.0069 22.5881L89.0398 22.8359L89.0727 23.0838C89.2816 23.056 89.4912 23.0213 89.6604 22.9873C89.7448 22.9704 89.8215 22.9532 89.8841 22.9366C89.9365 22.9227 90.0076 22.9023 90.0597 22.8727L89.9363 22.6553ZM89.0398 22.8359L89.0069 22.5881C88.609 22.641 87.7614 22.7035 87.1338 22.7397L87.1482 22.9893L87.1626 23.2388C87.7893 23.2027 88.6541 23.1394 89.0727 23.0838L89.0398 22.8359ZM87.1482 22.9893L87.138 22.7395C86.4827 22.7661 85.4876 22.7392 84.7805 22.6767L84.7585 22.9258L84.7366 23.1748C85.463 23.2389 86.4796 23.2666 87.1583 23.2391L87.1482 22.9893ZM84.7585 22.9258L84.7815 22.6768C84.4392 22.6453 84.1148 22.6138 83.8675 22.588C83.7437 22.5751 83.6401 22.5637 83.5635 22.5544C83.4772 22.544 83.4454 22.5385 83.4474 22.539L83.3855 22.7812L83.3236 23.0235C83.3611 23.0331 83.4331 23.0423 83.5037 23.0508C83.5841 23.0605 83.6907 23.0723 83.8155 23.0853C84.0655 23.1114 84.3921 23.1431 84.7356 23.1747L84.7585 22.9258ZM83.3855 22.7812L83.4483 22.5393C83.4846 22.5487 83.5292 22.5703 83.5656 22.6131C83.6015 22.6552 83.6148 22.7006 83.6189 22.7332C83.6227 22.7641 83.619 22.7876 83.6167 22.7987C83.6142 22.8107 83.6113 22.8182 83.6106 22.82C83.6103 22.8208 83.6203 22.7996 83.6566 22.7508C83.7242 22.66 83.8435 22.5254 84.0085 22.3624L83.8328 22.1846L83.657 22.0067C83.4835 22.1782 83.3444 22.3329 83.2555 22.4523C83.2136 22.5086 83.1709 22.5727 83.1461 22.6349C83.1355 22.6614 83.1136 22.722 83.1227 22.795C83.1279 22.8368 83.1443 22.8896 83.185 22.9373C83.2263 22.9859 83.2777 23.0116 83.3227 23.0232L83.3855 22.7812ZM83.8328 22.1846L84.0117 22.3591C84.3216 22.0414 84.7369 21.5918 84.9338 21.3472L84.739 21.1904L84.5443 21.0337C84.3628 21.2591 83.9611 21.695 83.6538 22.01L83.8328 22.1846ZM84.739 21.1904L84.9367 21.3434C85.0637 21.1794 85.1452 21.0953 85.2066 21.0509C85.2558 21.0154 85.2892 21.0068 85.3367 21.0068V20.7568V20.5068C85.1851 20.5068 85.049 20.5479 84.9138 20.6456C84.7909 20.7344 84.6731 20.8672 84.5413 21.0374L84.739 21.1904ZM85.3367 20.7568L85.3366 21.0068C85.3635 21.0068 85.3757 21.0091 85.4313 21.0115L85.4421 20.7617L85.453 20.512C85.4339 20.5111 85.3748 20.5068 85.3367 20.5068L85.3367 20.7568ZM85.4421 20.7617L85.4752 20.5139C85.4039 20.5044 85.3433 20.4961 85.2992 20.4894C85.2769 20.486 85.2609 20.4834 85.2507 20.4815C85.2454 20.4805 85.2439 20.4801 85.2448 20.4803C85.2453 20.4804 85.2481 20.4811 85.2524 20.4824C85.2551 20.4832 85.2663 20.4865 85.2804 20.4929L85.1775 20.7207L85.0745 20.9485C85.1007 20.9603 85.1253 20.9659 85.1296 20.9669C85.1398 20.9693 85.1502 20.9713 85.1592 20.973C85.1777 20.9765 85.2002 20.9801 85.2243 20.9837C85.2731 20.9911 85.3375 21 85.409 21.0095L85.4421 20.7617ZM85.1775 20.7207L85.3455 20.5356C85.403 20.5878 85.4191 20.6499 85.4239 20.68C85.4291 20.7116 85.4268 20.7368 85.4254 20.7487C85.4225 20.773 85.4165 20.7907 85.4151 20.7949C85.4112 20.8063 85.4079 20.8128 85.4094 20.8097C85.4111 20.8061 85.4163 20.7959 85.4269 20.777C85.4471 20.7407 85.479 20.6865 85.5209 20.6172C85.6042 20.4792 85.7226 20.2887 85.8565 20.077L85.6453 19.9434L85.434 19.8097C85.2992 20.0228 85.1787 20.2165 85.0928 20.3587C85.0501 20.4294 85.0148 20.4894 84.9903 20.5333C84.9784 20.5546 84.9669 20.576 84.958 20.5945C84.9542 20.6026 84.9471 20.6178 84.9412 20.6354C84.9387 20.6427 84.9321 20.6629 84.929 20.689C84.9274 20.7019 84.9252 20.7279 84.9304 20.7601C84.9354 20.7908 84.9516 20.8533 85.0094 20.9058L85.1775 20.7207ZM85.6453 19.9434L85.8565 20.077C86.1302 19.6446 86.5154 18.9463 86.7106 18.5079L86.4822 18.4062L86.2538 18.3046C86.0707 18.7159 85.698 19.3925 85.434 19.8097L85.6453 19.9434ZM86.4822 18.4062L86.7085 18.5123C86.9131 18.0757 87.1757 17.3779 87.3082 16.943L87.0691 16.8701L86.8299 16.7973C86.7036 17.2118 86.4493 17.8872 86.2558 18.3002L86.4822 18.4062ZM87.0691 16.8701L87.3091 16.9399C87.5076 16.2571 87.5479 15.9139 87.5378 14.7888L87.2878 14.791L87.0378 14.7933C87.0477 15.8915 87.0089 16.1815 86.829 16.8003L87.0691 16.8701ZM87.2878 14.791L87.5378 14.7888C87.5329 14.2167 87.5231 13.8497 87.4824 13.5343C87.441 13.2128 87.3682 12.9512 87.2466 12.5877L87.0095 12.667L86.7724 12.7463C86.8896 13.0966 86.9511 13.3232 86.9866 13.5982C87.0228 13.8795 87.0329 14.2175 87.0378 14.7932L87.2878 14.791ZM87.0095 12.667L87.2464 12.5871C87.0943 12.136 86.8298 11.5045 86.6498 11.1872L86.4324 11.3105L86.2149 11.4339C86.3734 11.7132 86.626 12.3122 86.7726 12.7469L87.0095 12.667ZM86.4324 11.3105L86.6529 11.1928C86.5777 11.052 86.5156 10.9136 86.4767 10.8068C86.457 10.7527 86.4455 10.7127 86.4403 10.6877C86.4377 10.6749 86.438 10.6723 86.4382 10.677C86.4382 10.6796 86.4384 10.6877 86.4367 10.6994C86.4352 10.7104 86.4312 10.7317 86.4192 10.7571L86.1931 10.6504L85.967 10.5437C85.938 10.6052 85.9375 10.6642 85.9384 10.6924C85.9395 10.7267 85.9447 10.7601 85.9507 10.7889C85.9627 10.847 85.983 10.9121 86.0069 10.9779C86.0553 11.1108 86.1277 11.2708 86.2118 11.4283L86.4324 11.3105ZM86.1931 10.6504L86.411 10.7729C86.404 10.7855 86.3975 10.7937 86.3947 10.7972C86.3931 10.7992 86.3918 10.8006 86.391 10.8015C86.3902 10.8023 86.3898 10.8028 86.3898 10.8028C86.3898 10.8028 86.39 10.8025 86.3907 10.8019C86.3913 10.8014 86.3922 10.8006 86.3934 10.7995C86.3958 10.7974 86.399 10.7946 86.4033 10.7912C86.4213 10.7768 86.449 10.757 86.4859 10.7335C86.5593 10.6868 86.6558 10.6338 86.7545 10.589L86.6511 10.3613L86.5478 10.1337C86.4279 10.1881 86.3108 10.2523 86.2174 10.3117C86.1709 10.3413 86.1271 10.3718 86.0904 10.4012C86.0636 10.4227 86.0091 10.4677 85.9752 10.5278L86.1931 10.6504ZM86.6511 10.3613L86.7544 10.589C86.958 10.4966 87.2923 10.3842 87.4903 10.3328L87.4275 10.0908L87.3647 9.84883C87.1446 9.90595 86.7823 10.0273 86.5478 10.1337L86.6511 10.3613ZM87.4275 10.0908V9.84082H87.4177V10.0908V10.3408H87.4275V10.0908ZM87.4177 10.0908L87.4705 10.3352C87.6505 10.2963 88.0846 10.2684 88.4305 10.2858L88.4431 10.0361L88.4557 9.78645C88.0849 9.76775 87.6031 9.79498 87.3649 9.84646L87.4177 10.0908Z" fill="#DEC2DB"/>
<defs>
<filter id="filter0_d_1196_3071" x="65.001" y="0" width="21.9902" height="12" filterUnits="userSpaceOnUse" color-interpolation-filters="sRGB">
<feFlood flood-opacity="0" result="BackgroundImageFix"/>
<feColorMatrix in="SourceAlpha" type="matrix" values="0 0 0 0 0 0 0 0 0 0 0 0 0 0 0 0 0 0 127 0" result="hardAlpha"/>
<feOffset dx="1" dy="1"/>
<feGaussianBlur stdDeviation="1"/>
<feComposite in2="hardAlpha" operator="out"/>
<feColorMatrix type="matrix" values="0 0 0 0 1 0 0 0 0 1 0 0 0 0 1 0 0 0 0.5 0"/>
<feBlend mode="normal" in2="BackgroundImageFix" result="effect1_dropShadow_1196_3071"/>
<feBlend mode="normal" in="SourceGraphic" in2="effect1_dropShadow_1196_3071" result="shape"/>
</filter>
<filter id="filter1_d_1196_3071" x="64.001" y="9" width="24.0352" height="22.6406" filterUnits="userSpaceOnUse" color-interpolation-filters="sRGB">
<feFlood flood-opacity="0" result="BackgroundImageFix"/>
<feColorMatrix in="SourceAlpha" type="matrix" values="0 0 0 0 0 0 0 0 0 0 0 0 0 0 0 0 0 0 127 0" result="hardAlpha"/>
<feOffset dx="1" dy="1"/>
<feGaussianBlur stdDeviation="1"/>
<feComposite in2="hardAlpha" operator="out"/>
<feColorMatrix type="matrix" values="0 0 0 0 1 0 0 0 0 1 0 0 0 0 1 0 0 0 0.5 0"/>
<feBlend mode="normal" in2="BackgroundImageFix" result="effect1_dropShadow_1196_3071"/>
<feBlend mode="normal" in="SourceGraphic" in2="effect1_dropShadow_1196_3071" result="shape"/>
</filter>
<linearGradient id="paint0_linear_1196_3071" x1="2" y1="33.5" x2="151.5" y2="33.5001" gradientUnits="userSpaceOnUse">
<stop stop-color="#B28EF8"/>
<stop offset="1" stop-color="#F476E5"/>
</linearGradient>
<linearGradient id="paint1_linear_1196_3071" x1="2" y1="61.5" x2="151.5" y2="61.5001" gradientUnits="userSpaceOnUse">
<stop stop-color="#B28EF8"/>
<stop offset="1" stop-color="#F476E5"/>
</linearGradient>
<linearGradient id="paint2_linear_1196_3071" x1="66.001" y1="5" x2="83.991" y2="5" gradientUnits="userSpaceOnUse">
<stop stop-color="#B28EF8"/>
<stop offset="1" stop-color="#F476E5"/>
</linearGradient>
</defs>
</svg>
