<svg viewBox="0 0 200 64" fill="none" xmlns="http://www.w3.org/2000/svg">
<path d="M0.666667 33C0.666667 33.7364 1.26362 34.3333 2 34.3333C2.73638 34.3333 3.33333 33.7364 3.33333 33C3.33333 32.2636 2.73638 31.6667 2 31.6667C1.26362 31.6667 0.666667 32.2636 0.666667 33ZM196.667 33C196.667 33.7364 197.264 34.3333 198 34.3333C198.736 34.3333 199.333 33.7364 199.333 33C199.333 32.2636 198.736 31.6667 198 31.6667C197.264 31.6667 196.667 32.2636 196.667 33ZM2 33V33.25H198V33V32.75H2V33Z" fill="url(#paint0_linear_1258_3023)"/>
<path d="M0.666667 62C0.666667 62.7364 1.26362 63.3333 2 63.3333C2.73638 63.3333 3.33333 62.7364 3.33333 62C3.33333 61.2636 2.73638 60.6667 2 60.6667C1.26362 60.6667 0.666667 61.2636 0.666667 62ZM196.667 62C196.667 62.7364 197.264 63.3333 198 63.3333C198.736 63.3333 199.333 62.7364 199.333 62C199.333 61.2636 198.736 60.6667 198 60.6667C197.264 60.6667 196.667 61.2636 196.667 62ZM2 62V62.25H198V62V61.75H2V62Z" fill="url(#paint1_linear_1258_3023)"/>
<g filter="url(#filter0_d_1258_3023)">
<path d="M106.991 1L101.584 5.19695L97.7674 1.10654L93.9488 5.19695L89.0012 1.31962L90.9795 9H104.907L106.991 1ZM97.756 4.67563L99.2539 6.05304L97.756 8.03347L96.2581 6.05304L97.756 4.67563ZM92.6004 6.01682C93.1145 6.01682 93.5194 6.42411 93.5194 6.94159C93.5194 7.45864 93.1146 7.86422 92.6003 7.86422C92.0861 7.86422 91.681 7.45864 91.681 6.94152C91.681 6.42441 92.0861 6.01682 92.6004 6.01682ZM103.237 6.01682C103.751 6.01682 104.156 6.42411 104.156 6.94159C104.156 7.45864 103.751 7.86422 103.237 7.86422C102.723 7.86422 102.318 7.45864 102.318 6.94152C102.318 6.42441 102.723 6.01682 103.237 6.01682Z" fill="url(#paint2_linear_1258_3023)"/>
</g>
<g filter="url(#filter1_d_1258_3023)">
<path d="M102.81 10C101.026 10 99.4473 10.9006 98.5038 12.2705C98.2986 12.5245 98.1131 12.7939 97.9489 13.0762C95.1537 7.82816 88.1786 9.78379 88.0045 15.3303C87.8189 21.2416 95.555 22.7388 97.949 28.6402C99.7473 23.9582 104.86 21.8237 106.983 18.3662C107.644 17.4912 108.036 16.4032 108.036 15.226C108.036 14.4999 107.884 13.7819 107.589 13.1184C107.585 13.1072 107.581 13.0966 107.577 13.0855C107.576 13.083 107.574 13.0806 107.573 13.0782C107.031 11.6627 105.919 10.7311 104.61 10.3206L104.605 10.3188C104.03 10.1077 103.423 9.99972 102.81 10ZM102.81 11.0951C105.098 11.0951 106.941 12.9381 106.941 15.226C106.941 16.67 106.207 17.9376 105.09 18.6756C105.691 17.5008 105.594 15.8066 104.717 14.2865C103.702 12.5296 101.962 11.5598 100.494 11.8018C101.154 11.3554 101.951 11.0951 102.81 11.0951Z" fill="#F476E5"/>
</g>
<path d="M87.9276 20.9919C87.9077 20.9195 87.9874 20.8382 88.0969 20.8201C88.2064 20.793 88.4453 20.7749 88.6146 20.7659C88.8933 20.7568 88.9929 20.8201 89.2716 21.1907C89.4508 21.4257 89.859 21.8687 90.1676 22.185C90.5061 22.5195 90.6853 22.7636 90.6057 22.7816C90.546 22.7997 89.9287 22.863 89.2418 22.9263C88.525 22.9895 87.5194 23.0167 86.8524 22.9895C86.2252 22.9534 85.369 22.8901 84.9609 22.8359C84.5527 22.7816 84.1445 22.7003 84.0648 22.6551C83.9852 22.6189 83.9454 22.5285 83.9752 22.4562C84.0051 22.393 84.3635 22.167 84.7717 21.9681C85.4586 21.6156 85.5781 21.5885 86.5538 21.5161C87.3602 21.4619 87.6389 21.4077 87.7683 21.2811C87.8679 21.1907 87.9376 21.0642 87.9276 20.9919Z" fill="#F3F3FF"/>
<path d="M106.833 22.185C107.142 21.8687 107.55 21.4257 107.739 21.1907C107.998 20.8563 108.138 20.7568 108.337 20.7568C108.486 20.7568 108.705 20.7749 108.824 20.802C108.954 20.8292 109.053 20.9105 109.053 20.9828C109.053 21.0551 109.133 21.1907 109.223 21.2811C109.362 21.4077 109.641 21.4619 110.447 21.5161C111.423 21.5885 111.542 21.6156 112.229 21.9681C112.637 22.167 112.996 22.393 113.026 22.4562C113.056 22.5285 113.016 22.6189 112.936 22.6551C112.856 22.7003 112.448 22.7816 112.04 22.8359C111.632 22.8901 110.776 22.9534 110.149 22.9895C109.482 23.0167 108.476 22.9895 107.759 22.9263C107.072 22.863 106.455 22.7997 106.385 22.7816C106.316 22.7636 106.495 22.5195 106.833 22.185Z" fill="#F3F3FF"/>
<path d="M84.0148 10.4339C84.2338 10.3254 84.5922 10.1898 84.8113 10.1266C85.0303 10.0633 85.4086 10.009 85.6575 10C85.9064 10 86.3942 10.0723 86.7527 10.1717C87.1111 10.2712 87.5093 10.4248 87.8976 10.7051L87.579 11.2745C87.4097 11.5909 87.1409 12.2237 86.9916 12.6666C86.7527 13.3897 86.7128 13.6338 86.7128 14.7908C86.7029 15.8936 86.7427 16.2191 86.9319 16.8699C87.0613 17.2947 87.3401 18.0269 87.5591 18.497C87.7781 18.967 88.1564 19.663 88.4053 20.0337C88.6443 20.4043 88.8334 20.7116 88.8235 20.7206C88.8036 20.7297 88.6044 20.7568 88.3755 20.793C88.0668 20.8291 87.9474 20.8201 87.9474 20.7297C87.9474 20.6754 87.8677 20.5489 87.7682 20.4585C87.6188 20.3139 87.3998 20.2958 85.9562 20.3048C84.8809 20.3048 83.9849 20.2596 83.3676 20.1602C82.8499 20.0788 82.1033 19.9071 81.7249 19.7805C81.3466 19.663 80.8488 19.4551 80.6298 19.3376C80.2813 19.1478 80.2515 19.1026 80.3809 18.9941C80.4605 18.9309 81.1774 18.6416 81.9738 18.3523C82.7703 18.0721 83.517 17.7467 83.6464 17.6473C83.8157 17.5026 83.8654 17.3761 83.8455 17.1501C83.8256 16.9512 83.7261 16.7795 83.5668 16.671C83.3378 16.5083 83.2482 16.4993 82.3521 16.5897C81.8145 16.6439 80.7492 16.6891 79.9826 16.6891C79.1463 16.6891 78.3001 16.6349 77.872 16.5535C77.4738 16.4812 76.966 16.3546 76.747 16.2733C76.5279 16.1919 76.2492 16.0563 76.1198 15.975C75.8908 15.8304 75.9007 15.8213 76.966 15.3332C77.5534 15.053 78.33 14.6553 78.6884 14.4383C79.0468 14.2214 79.7337 13.7513 80.2315 13.3897C80.7293 13.0282 81.6851 12.2598 82.3721 11.6813C83.059 11.0938 83.7958 10.5333 84.0148 10.4339Z" fill="#F3F3FF"/>
<path d="M109.651 10.3616C109.87 10.2621 110.219 10.1446 110.428 10.0904H110.418C110.627 10.0452 111.085 10.0181 111.443 10.0362C111.921 10.0542 112.26 10.1356 112.738 10.3345C113.215 10.5424 113.713 10.8949 114.629 11.6723C115.316 12.2598 116.282 13.0282 116.77 13.3897C117.258 13.7513 117.954 14.2214 118.313 14.4383C118.671 14.6553 119.448 15.053 120.035 15.3332C121.1 15.8213 121.11 15.8304 120.881 15.975C120.752 16.0563 120.473 16.1919 120.254 16.2733C120.035 16.3546 119.527 16.4812 119.129 16.5535C118.701 16.6349 117.855 16.6891 117.019 16.6891C116.252 16.6891 115.177 16.6349 113.644 16.4631L113.385 16.6891C113.225 16.8337 113.126 17.0145 113.126 17.1863C113.126 17.349 113.215 17.5298 113.355 17.6473C113.484 17.7557 114.231 18.0721 115.027 18.3523C115.824 18.6416 116.531 18.9128 116.59 18.958C116.66 19.0032 116.7 19.0755 116.67 19.1297C116.64 19.184 116.361 19.3376 116.043 19.4823C115.734 19.6178 115.246 19.7986 114.978 19.88C114.699 19.9613 114.072 20.0879 113.584 20.1692C113.016 20.2596 112.07 20.3048 109.353 20.3048L109.173 20.576C109.014 20.8201 108.974 20.8382 108.606 20.7839C108.387 20.7568 108.198 20.7297 108.178 20.7206C108.168 20.7116 108.377 20.3681 108.646 19.9433C108.914 19.5184 109.293 18.8314 109.482 18.4066C109.681 17.9817 109.94 17.2947 110.069 16.8699C110.259 16.2191 110.298 15.9027 110.288 14.7908C110.278 13.6428 110.249 13.3807 110.01 12.6666C109.86 12.2237 109.601 11.609 109.432 11.3107C109.273 11.0124 109.163 10.7141 109.193 10.6508C109.223 10.5966 109.432 10.461 109.651 10.3616Z" fill="#F3F3FF"/>
<defs>
<filter id="filter0_d_1258_3023" x="88.0012" y="0" width="21.99" height="12" filterUnits="userSpaceOnUse" color-interpolation-filters="sRGB">
<feFlood flood-opacity="0" result="BackgroundImageFix"/>
<feColorMatrix in="SourceAlpha" type="matrix" values="0 0 0 0 0 0 0 0 0 0 0 0 0 0 0 0 0 0 127 0" result="hardAlpha"/>
<feOffset dx="1" dy="1"/>
<feGaussianBlur stdDeviation="1"/>
<feComposite in2="hardAlpha" operator="out"/>
<feColorMatrix type="matrix" values="0 0 0 0 1 0 0 0 0 1 0 0 0 0 1 0 0 0 0.5 0"/>
<feBlend mode="normal" in2="BackgroundImageFix" result="effect1_dropShadow_1258_3023"/>
<feBlend mode="normal" in="SourceGraphic" in2="effect1_dropShadow_1258_3023" result="shape"/>
</filter>
<filter id="filter1_d_1258_3023" x="87.0012" y="9" width="24.0352" height="22.6406" filterUnits="userSpaceOnUse" color-interpolation-filters="sRGB">
<feFlood flood-opacity="0" result="BackgroundImageFix"/>
<feColorMatrix in="SourceAlpha" type="matrix" values="0 0 0 0 0 0 0 0 0 0 0 0 0 0 0 0 0 0 127 0" result="hardAlpha"/>
<feOffset dx="1" dy="1"/>
<feGaussianBlur stdDeviation="1"/>
<feComposite in2="hardAlpha" operator="out"/>
<feColorMatrix type="matrix" values="0 0 0 0 1 0 0 0 0 1 0 0 0 0 1 0 0 0 0.5 0"/>
<feBlend mode="normal" in2="BackgroundImageFix" result="effect1_dropShadow_1258_3023"/>
<feBlend mode="normal" in="SourceGraphic" in2="effect1_dropShadow_1258_3023" result="shape"/>
</filter>
<linearGradient id="paint0_linear_1258_3023" x1="2" y1="33.5" x2="198" y2="33.5002" gradientUnits="userSpaceOnUse">
<stop stop-color="#B28EF8"/>
<stop offset="1" stop-color="#F476E5"/>
</linearGradient>
<linearGradient id="paint1_linear_1258_3023" x1="2" y1="62.5" x2="198" y2="62.5002" gradientUnits="userSpaceOnUse">
<stop stop-color="#B28EF8"/>
<stop offset="1" stop-color="#F476E5"/>
</linearGradient>
<linearGradient id="paint2_linear_1258_3023" x1="89.0012" y1="5" x2="106.991" y2="5" gradientUnits="userSpaceOnUse">
<stop stop-color="#B28EF8"/>
<stop offset="1" stop-color="#F476E5"/>
</linearGradient>
</defs>
</svg>
