<svg width="18" height="18" viewBox="0 0 18 18" fill="none" xmlns="http://www.w3.org/2000/svg">
<path d="M13.0183 11.274C12.8154 11.274 12.6144 11.314 12.4269 11.3917C12.2394 11.4693 12.069 11.5832 11.9255 11.7267C11.782 11.8702 11.6682 12.0406 11.5905 12.2281C11.5128 12.4156 11.4729 12.6165 11.4729 12.8195C11.4729 13.0224 11.5128 13.2234 11.5905 13.4109C11.6682 13.5984 11.782 13.7688 11.9255 13.9123C12.069 14.0558 12.2394 14.1696 12.4269 14.2473C12.6144 14.325 12.8154 14.3649 13.0183 14.3649C13.4282 14.3649 13.8213 14.2021 14.1111 13.9123C14.4009 13.6225 14.5638 13.2294 14.5638 12.8195C14.5638 12.4096 14.4009 12.0165 14.1111 11.7267C13.8213 11.4369 13.4282 11.274 13.0183 11.274ZM3.63354 5.17876C3.63354 4.76888 3.79637 4.37578 4.0862 4.08595C4.37603 3.79613 4.76912 3.6333 5.179 3.6333C5.58888 3.6333 5.98197 3.79613 6.2718 4.08595C6.56163 4.37578 6.72445 4.76888 6.72445 5.17876C6.72445 5.58864 6.56163 5.98173 6.2718 6.27156C5.98197 6.56139 5.58888 6.72421 5.179 6.72421C4.76912 6.72421 4.37603 6.56139 4.0862 6.27156C3.79637 5.98173 3.63354 5.58864 3.63354 5.17876Z" fill="#F9BCC1"/>
<path fill-rule="evenodd" clip-rule="evenodd" d="M2.81818 0.5C2.20336 0.5 1.61372 0.744236 1.17898 1.17898C0.744236 1.61372 0.5 2.20336 0.5 2.81818V15.1818C0.5 15.7966 0.744236 16.3863 1.17898 16.821C1.61372 17.2558 2.20336 17.5 2.81818 17.5H15.1818C15.7966 17.5 16.3863 17.2558 16.821 16.821C17.2558 16.3863 17.5 15.7966 17.5 15.1818V2.81818C17.5 2.20336 17.2558 1.61372 16.821 1.17898C16.3863 0.744236 15.7966 0.5 15.1818 0.5H2.81818ZM15.1818 2.04545H2.81818C2.61324 2.04545 2.4167 2.12687 2.27178 2.27178C2.12687 2.4167 2.04545 2.61324 2.04545 2.81818V15.1818C2.04545 15.3868 2.12687 15.5833 2.27178 15.7282C2.4167 15.8731 2.61324 15.9545 2.81818 15.9545H15.1818C15.3868 15.9545 15.5833 15.8731 15.7282 15.7282C15.8731 15.5833 15.9545 15.3868 15.9545 15.1818V2.81818C15.9545 2.61324 15.8731 2.4167 15.7282 2.27178C15.5833 2.12687 15.3868 2.04545 15.1818 2.04545Z" fill="#F9BCC1"/>
</svg>
