<svg width="14" height="14" viewBox="0 0 14 14" fill="none" xmlns="http://www.w3.org/2000/svg">
<path d="M5.72726 6.99978C5.72726 6.66223 5.86136 6.33851 6.10004 6.09982C6.33872 5.86114 6.66244 5.72705 6.99999 5.72705C7.33754 5.72705 7.66126 5.86114 7.89995 6.09982C8.13863 6.33851 8.27272 6.66223 8.27272 6.99978C8.27272 7.33733 8.13863 7.66105 7.89995 7.89973C7.66126 8.13841 7.33754 8.27251 6.99999 8.27251C6.66244 8.27251 6.33872 8.13841 6.10004 7.89973C5.86136 7.66105 5.72726 7.33733 5.72726 6.99978Z" fill="#9FC9FF"/>
<path fill-rule="evenodd" clip-rule="evenodd" d="M0 1.90909C0 1.40277 0.201136 0.917184 0.55916 0.55916C0.917184 0.201136 1.40277 0 1.90909 0H12.0909C12.5972 0 13.0828 0.201136 13.4408 0.55916C13.7989 0.917184 14 1.40277 14 1.90909V12.0909C14 12.5972 13.7989 13.0828 13.4408 13.4408C13.0828 13.7989 12.5972 14 12.0909 14H1.90909C1.40277 14 0.917184 13.7989 0.55916 13.4408C0.201136 13.0828 0 12.5972 0 12.0909V1.90909ZM1.90909 1.27273H12.0909C12.2597 1.27273 12.4215 1.33977 12.5409 1.45911C12.6602 1.57846 12.7273 1.74032 12.7273 1.90909V12.0909C12.7273 12.2597 12.6602 12.4215 12.5409 12.5409C12.4215 12.6602 12.2597 12.7273 12.0909 12.7273H1.90909C1.74032 12.7273 1.57846 12.6602 1.45911 12.5409C1.33977 12.4215 1.27273 12.2597 1.27273 12.0909V1.90909C1.27273 1.74032 1.33977 1.57846 1.45911 1.45911C1.57846 1.33977 1.74032 1.27273 1.90909 1.27273Z" fill="#9FC9FF"/>
</svg>
