<svg width="18" height="18" viewBox="0 0 18 18" fill="none" xmlns="http://www.w3.org/2000/svg">
<path d="M7.45468 8.99989C7.45468 8.59001 7.61751 8.19692 7.90734 7.90709C8.19716 7.61726 8.59026 7.45444 9.00014 7.45444C9.41002 7.45444 9.80311 7.61726 10.0929 7.90709C10.3828 8.19692 10.5456 8.59001 10.5456 8.99989C10.5456 9.40977 10.3828 9.80286 10.0929 10.0927C9.80311 10.3825 9.41002 10.5453 9.00014 10.5453C8.59026 10.5453 8.19716 10.3825 7.90734 10.0927C7.61751 9.80286 7.45468 9.40977 7.45468 8.99989ZM12.8213 11.2346C12.4114 11.2346 12.0183 11.3974 11.7285 11.6873C11.4386 11.9771 11.2758 12.3702 11.2758 12.7801C11.2758 13.19 11.4386 13.583 11.7285 13.8729C12.0183 14.1627 12.4114 14.3255 12.8213 14.3255C13.2312 14.3255 13.6242 14.1627 13.9141 13.8729C14.2039 13.583 14.3667 13.19 14.3667 12.7801C14.3667 12.3702 14.2039 11.9771 13.9141 11.6873C13.6242 11.3974 13.2312 11.2346 12.8213 11.2346ZM3.63354 5.17876C3.63354 4.76888 3.79637 4.37578 4.0862 4.08595C4.37603 3.79613 4.76912 3.6333 5.179 3.6333C5.58888 3.6333 5.98197 3.79613 6.2718 4.08595C6.56163 4.37578 6.72445 4.76888 6.72445 5.17876C6.72445 5.58864 6.56163 5.98173 6.2718 6.27156C5.98197 6.56139 5.58888 6.72421 5.179 6.72421C4.76912 6.72421 4.37603 6.56139 4.0862 6.27156C3.79637 5.98173 3.63354 5.58864 3.63354 5.17876Z" fill="#9FC9FF"/>
<path fill-rule="evenodd" clip-rule="evenodd" d="M0.5 2.81818C0.5 2.20336 0.744236 1.61372 1.17898 1.17898C1.61372 0.744236 2.20336 0.5 2.81818 0.5H15.1818C15.7966 0.5 16.3863 0.744236 16.821 1.17898C17.2558 1.61372 17.5 2.20336 17.5 2.81818V15.1818C17.5 15.7966 17.2558 16.3863 16.821 16.821C16.3863 17.2558 15.7966 17.5 15.1818 17.5H2.81818C2.20336 17.5 1.61372 17.2558 1.17898 16.821C0.744236 16.3863 0.5 15.7966 0.5 15.1818V2.81818ZM2.81818 2.04545H15.1818C15.3868 2.04545 15.5833 2.12687 15.7282 2.27178C15.8731 2.4167 15.9545 2.61324 15.9545 2.81818V15.1818C15.9545 15.3868 15.8731 15.5833 15.7282 15.7282C15.5833 15.8731 15.3868 15.9545 15.1818 15.9545H2.81818C2.61324 15.9545 2.4167 15.8731 2.27178 15.7282C2.12687 15.5833 2.04545 15.3868 2.04545 15.1818V2.81818C2.04545 2.61324 2.12687 2.4167 2.27178 2.27178C2.4167 2.12687 2.61324 2.04545 2.81818 2.04545Z" fill="#9FC9FF"/>
</svg>
