<svg width="22" height="24" viewBox="0 0 22 24" fill="none" xmlns="http://www.w3.org/2000/svg">
<path d="M9.42857 0.66C9.12925 1.02 8.91973 1.65 8.94966 2.01C8.97959 2.55 8.74014 2.76 8.02177 3L7.03401 3.3L17.8095 14.1C17.9592 9.93 17.8395 8.31 17.6 7.53C17.3905 6.78 16.6721 5.58 16.0136 4.86C15.3551 4.14 14.3075 3.33 13.6789 3.06C12.9306 2.7 12.5714 2.37 12.5714 1.95C12.5714 1.62 12.3619 1.05 12.1224 0.69C11.8231 0.24 11.3742 0 10.7755 0C10.2367 0 9.72789 0.24 9.42857 0.66ZM0.838095 2.01L0 2.85C3.89116 6.78 4.10068 7.14 3.86122 7.74C3.71156 8.1 3.59184 10.26 3.59184 12.54V16.65C1.67619 18.54 1.19728 19.32 1.19728 19.74C1.19728 20.4 1.25714 20.4 4.87891 20.4H8.53061C8.41089 22.23 8.56055 22.68 9.12925 23.25C9.60816 23.73 10.2068 24 10.7755 24C11.3742 24 11.9728 23.73 12.4218 23.25C12.9905 22.71 13.1401 22.23 13.1102 21.45L13.0204 20.4H17.5102L20.3537 23.25L22 21.6L1.64626 1.17L0.838095 2.01Z" fill="#F9BCC1"/>
</svg>
