<svg width="18" height="18" viewBox="0 0 18 18" fill="none" xmlns="http://www.w3.org/2000/svg">
<path d="M12.8213 3.6333C12.4114 3.6333 12.0183 3.79613 11.7285 4.08595C11.4386 4.37578 11.2758 4.76888 11.2758 5.17876C11.2758 5.58864 11.4386 5.98173 11.7285 6.27156C12.0183 6.56139 12.4114 6.72421 12.8213 6.72421C13.2312 6.72421 13.6242 6.56139 13.9141 6.27156C14.2039 5.98173 14.3667 5.58864 14.3667 5.17876C14.3667 4.76888 14.2039 4.37578 13.9141 4.08595C13.6242 3.79613 13.2312 3.6333 12.8213 3.6333ZM11.2758 12.7801C11.2758 12.3702 11.4386 11.9771 11.7285 11.6873C12.0183 11.3974 12.4114 11.2346 12.8213 11.2346C13.2312 11.2346 13.6242 11.3974 13.9141 11.6873C14.2039 11.9771 14.3667 12.3702 14.3667 12.7801C14.3667 13.19 14.2039 13.583 13.9141 13.8729C13.6242 14.1627 13.2312 14.3255 12.8213 14.3255C12.4114 14.3255 12.0183 14.1627 11.7285 13.8729C11.4386 13.583 11.2758 13.19 11.2758 12.7801ZM5.179 11.2346C4.76912 11.2346 4.37603 11.3974 4.0862 11.6873C3.79637 11.9771 3.63354 12.3702 3.63354 12.7801C3.63354 13.19 3.79637 13.583 4.0862 13.8729C4.37603 14.1627 4.76912 14.3255 5.179 14.3255C5.58888 14.3255 5.98197 14.1627 6.2718 13.8729C6.56163 13.583 6.72445 13.19 6.72445 12.7801C6.72445 12.3702 6.56163 11.9771 6.2718 11.6873C5.98197 11.3974 5.58888 11.2346 5.179 11.2346ZM3.63354 5.17876C3.63354 4.9758 3.67352 4.77484 3.75119 4.58734C3.82885 4.39983 3.94269 4.22946 4.0862 4.08595C4.22971 3.94245 4.40008 3.82861 4.58758 3.75094C4.77508 3.67328 4.97605 3.6333 5.179 3.6333C5.38195 3.6333 5.58292 3.67328 5.77042 3.75094C5.95792 3.82861 6.12829 3.94245 6.2718 4.08595C6.41531 4.22946 6.52915 4.39983 6.60681 4.58734C6.68448 4.77484 6.72445 4.9758 6.72445 5.17876C6.72445 5.58864 6.56163 5.98173 6.2718 6.27156C5.98197 6.56139 5.58888 6.72421 5.179 6.72421C4.76912 6.72421 4.37603 6.56139 4.0862 6.27156C3.79637 5.98173 3.63354 5.58864 3.63354 5.17876ZM12.8213 7.43435C12.4114 7.43435 12.0183 7.59717 11.7285 7.887C11.4386 8.17683 11.2758 8.56992 11.2758 8.9798C11.2758 9.38968 11.4386 9.78277 11.7285 10.0726C12.0183 10.3624 12.4114 10.5253 12.8213 10.5253C13.2312 10.5253 13.6242 10.3624 13.9141 10.0726C14.2039 9.78277 14.3667 9.38968 14.3667 8.9798C14.3667 8.56992 14.2039 8.17683 13.9141 7.887C13.6242 7.59717 13.2312 7.43435 12.8213 7.43435ZM3.63354 8.9798C3.63354 8.56992 3.79637 8.17683 4.0862 7.887C4.37603 7.59717 4.76912 7.43435 5.179 7.43435C5.58888 7.43435 5.98197 7.59717 6.2718 7.887C6.56163 8.17683 6.72445 8.56992 6.72445 8.9798C6.72445 9.38968 6.56163 9.78277 6.2718 10.0726C5.98197 10.3624 5.58888 10.5253 5.179 10.5253C4.76912 10.5253 4.37603 10.3624 4.0862 10.0726C3.79637 9.78277 3.63354 9.38968 3.63354 8.9798Z" fill="#F9BCC1"/>
<path fill-rule="evenodd" clip-rule="evenodd" d="M2.81818 0.5C2.20336 0.5 1.61372 0.744236 1.17898 1.17898C0.744236 1.61372 0.5 2.20336 0.5 2.81818V15.1818C0.5 15.7966 0.744236 16.3863 1.17898 16.821C1.61372 17.2558 2.20336 17.5 2.81818 17.5H15.1818C15.7966 17.5 16.3863 17.2558 16.821 16.821C17.2558 16.3863 17.5 15.7966 17.5 15.1818V2.81818C17.5 2.20336 17.2558 1.61372 16.821 1.17898C16.3863 0.744236 15.7966 0.5 15.1818 0.5H2.81818ZM15.1818 2.04545H2.81818C2.61324 2.04545 2.4167 2.12687 2.27178 2.27178C2.12687 2.4167 2.04545 2.61324 2.04545 2.81818V15.1818C2.04545 15.3868 2.12687 15.5833 2.27178 15.7282C2.4167 15.8731 2.61324 15.9545 2.81818 15.9545H15.1818C15.3868 15.9545 15.5833 15.8731 15.7282 15.7282C15.8731 15.5833 15.9545 15.3868 15.9545 15.1818V2.81818C15.9545 2.61324 15.8731 2.4167 15.7282 2.27178C15.5833 2.12687 15.3868 2.04545 15.1818 2.04545Z" fill="#F9BCC1"/>
</svg>
