<svg width="38" height="21" viewBox="0 0 38 21" fill="none" xmlns="http://www.w3.org/2000/svg">
<path d="M3.26018 0.275958C2.03963 6.12627 4.85549 9.93221 8.27002 12.0385C5.68697 11.4283 3.18783 10.5163 0.594238 9.15994C2.58643 15.2137 6.93525 16.6456 10.7431 16.2498C8.639 17.3632 6.41564 18.2265 4.18557 18.8109C9.61104 22.1814 13.5692 20.0967 15.7692 17.1455C15.6083 17.0012 15.4464 16.858 15.2835 16.716C14.8778 16.4271 14.4922 16.0949 14.1289 15.723C13.6627 15.3249 13.1879 14.9187 12.7092 14.4941C10.0804 12.1631 7.39838 9.36799 7.28494 5.67924L7.28479 5.66752C5.78893 3.94432 4.43541 2.12814 3.26025 0.275879L3.26018 0.275958ZM34.7399 0.275958C33.5649 2.12791 32.2111 3.94338 30.7153 5.66604L30.7156 5.67213C30.824 9.2633 28.1003 12.1299 25.4056 14.5304C24.322 15.4956 23.229 16.3917 22.2881 17.221C24.4988 20.132 28.4352 22.1527 33.8146 18.8109C31.5847 18.2265 29.3631 17.3632 27.2592 16.2499C31.0667 16.6449 35.4138 15.2124 37.4057 9.1601C34.8122 10.5166 32.313 11.4285 29.7299 12.0386C33.1444 9.93221 35.9604 6.1265 34.7397 0.276114L34.7399 0.275958ZM24.3945 0.586661C22.6644 0.599942 20.8481 1.51244 19.627 3.58354L19.0189 4.61479L18.4146 3.58135C16.8932 0.980879 14.165 0.173301 11.9966 0.788379H11.9958C10.0828 1.33111 8.60627 2.8944 8.69057 5.63588C8.7833 8.65229 11.0813 11.1712 13.6421 13.442C14.9226 14.5774 16.2484 15.6391 17.3462 16.6857C17.9991 17.3082 18.5788 17.9234 19.0128 18.5718C19.4478 17.9688 20.0224 17.3888 20.6703 16.7859C21.7939 15.7403 23.1591 14.6481 24.4703 13.4801C27.0928 11.1442 29.3957 8.54924 29.3102 5.71463C29.2228 2.82604 27.5349 1.15369 25.5119 0.704708C25.1451 0.623248 24.7702 0.583594 24.3945 0.586504L24.3945 0.586661Z" fill="white"/>
</svg>
