<svg width="92" height="92" viewBox="0 0 92 92" fill="none" xmlns="http://www.w3.org/2000/svg">
<path d="M51 41.0001L76 16.0001M81 21.0001L71 11.0001L83.5 3.50006L88.5 8.50006L81 21.0001ZM6.12502 30.8751C3.72448 28.4766 2.07302 25.432 1.37171 22.1119C0.670405 18.7918 0.949501 15.3394 2.17502 12.1751L9.28502 19.2851H19.285V9.28506L12.175 2.17506C15.3396 0.946761 18.7931 0.665362 22.1148 1.36514C25.4364 2.06492 28.4829 3.71566 30.883 6.11626C33.283 8.51686 34.9331 11.5637 35.6321 14.8855C36.3312 18.2073 36.049 21.6608 34.82 24.8251L67.17 57.1801C70.3343 55.9511 73.7877 55.6689 77.1096 56.3679C80.4314 57.067 83.4782 58.7171 85.8788 61.1171C88.2794 63.5172 89.9302 66.5636 90.6299 69.8853C91.3297 73.207 91.0483 76.6605 89.82 79.8251L82.715 72.7151H72.715V82.7151L79.825 89.8251C76.6612 91.0533 73.2086 91.3352 69.8875 90.6362C66.5664 89.9373 63.5202 88.2877 61.1199 85.8885C58.7195 83.4892 57.0686 80.4437 56.3682 77.1229C55.6678 73.8022 55.9481 70.3494 57.175 67.1851L24.815 34.8251C21.652 36.0485 18.2016 36.3264 14.8835 35.6252C11.5654 34.9239 8.52258 33.2737 6.12502 30.8751Z" stroke="white" stroke-width="1.875" stroke-linecap="round" stroke-linejoin="round"/>
<path d="M47.015 58.4999L18.995 86.5199C18.368 87.148 17.6233 87.6464 16.8035 87.9864C15.9838 88.3264 15.105 88.5014 14.2175 88.5014C13.33 88.5014 12.4512 88.3264 11.6314 87.9864C10.8116 87.6464 10.0669 87.148 9.43998 86.5199L5.47998 82.5599C4.85182 81.9329 4.35347 81.1882 4.01345 80.3684C3.67343 79.5487 3.49841 78.6699 3.49841 77.7824C3.49841 76.8949 3.67343 76.0161 4.01345 75.1963C4.35347 74.3765 4.85182 73.6318 5.47998 73.0049L33.5 44.9849" stroke="white" stroke-width="1.875" stroke-linecap="round" stroke-linejoin="round"/>
</svg>
